<mxfile host="app.diagrams.net" agent="Mozilla/5.0 (Windows NT 10.0; Win64; x64) AppleWebKit/537.36 (KHTML, like Gecko) Chrome/139.0.0.0 Safari/537.36 Edg/139.0.0.0" version="28.1.2">
  <diagram id="ancMZrckLGWsapOMijDk" name="第 2 页">
    <mxGraphModel dx="2840" dy="1651" grid="1" gridSize="10" guides="1" tooltips="1" connect="1" arrows="1" fold="1" page="1" pageScale="1" pageWidth="827" pageHeight="1169" math="0" shadow="0">
      <root>
        <mxCell id="0" />
        <mxCell id="1" parent="0" />
        <mxCell id="Hu4YVAxkf72-brbfAEm7-1" value="" style="group;fontFamily=Helvetica;fontSize=30;" parent="1" vertex="1" connectable="0">
          <mxGeometry x="60" y="90" width="2370" height="980" as="geometry" />
        </mxCell>
        <mxCell id="9kNGfoyaYw8XRan4NpMP-1" value="+" style="rounded=0;whiteSpace=wrap;html=1;fillColor=none;dashed=1;fontStyle=0;fontSize=30;movable=1;resizable=1;rotatable=1;deletable=1;editable=1;locked=0;connectable=1;spacing=6;fontFamily=Helvetica;" parent="Hu4YVAxkf72-brbfAEm7-1" vertex="1">
          <mxGeometry x="6.950146627565983" y="5.345847622485608" width="375.30791788856317" height="882.6544732567235" as="geometry" />
        </mxCell>
        <mxCell id="9kNGfoyaYw8XRan4NpMP-2" value="" style="rounded=0;whiteSpace=wrap;html=1;fontStyle=0;fontSize=30;movable=1;resizable=1;rotatable=1;deletable=1;editable=1;locked=0;connectable=1;spacing=6;fontFamily=Helvetica;" parent="Hu4YVAxkf72-brbfAEm7-1" vertex="1">
          <mxGeometry x="51.43108504398828" y="58.961554659767636" width="210.24193548387103" height="235.846218639071" as="geometry" />
        </mxCell>
        <mxCell id="9kNGfoyaYw8XRan4NpMP-3" value="" style="shape=waypoint;sketch=0;fillStyle=solid;size=6;pointerEvents=1;points=[];fillColor=none;resizable=1;rotatable=1;perimeter=centerPerimeter;snapToPoint=1;strokeWidth=5;strokeColor=#0000FF;fontStyle=0;fontSize=30;movable=1;deletable=1;editable=1;locked=0;connectable=1;spacing=6;fontFamily=Helvetica;" parent="Hu4YVAxkf72-brbfAEm7-1" vertex="1">
          <mxGeometry x="73.14334310850425" y="117.92310931953541" width="27.800586510263933" height="39.307703106511845" as="geometry" />
        </mxCell>
        <mxCell id="9kNGfoyaYw8XRan4NpMP-4" value="" style="shape=waypoint;sketch=0;fillStyle=solid;size=6;pointerEvents=1;points=[];fillColor=none;resizable=1;rotatable=1;perimeter=centerPerimeter;snapToPoint=1;strokeWidth=5;strokeColor=#0000FF;fontStyle=0;fontSize=30;movable=1;deletable=1;editable=1;locked=0;connectable=1;spacing=6;fontFamily=Helvetica;" parent="Hu4YVAxkf72-brbfAEm7-1" vertex="1">
          <mxGeometry x="135.6946627565981" y="117.92310931953541" width="27.800586510263933" height="39.307703106511845" as="geometry" />
        </mxCell>
        <mxCell id="9kNGfoyaYw8XRan4NpMP-5" value="" style="shape=waypoint;sketch=0;fillStyle=solid;size=6;pointerEvents=1;points=[];fillColor=none;resizable=1;rotatable=1;perimeter=centerPerimeter;snapToPoint=1;strokeWidth=5;strokeColor=#0000FF;fontStyle=0;fontSize=30;movable=1;deletable=1;editable=1;locked=0;connectable=1;spacing=6;fontFamily=Helvetica;" parent="Hu4YVAxkf72-brbfAEm7-1" vertex="1">
          <mxGeometry x="91.21372434017582" y="216.1923670858151" width="27.800586510263933" height="39.307703106511845" as="geometry" />
        </mxCell>
        <mxCell id="9kNGfoyaYw8XRan4NpMP-6" value="" style="shape=waypoint;sketch=0;fillStyle=solid;size=6;pointerEvents=1;points=[];fillColor=none;resizable=1;rotatable=1;perimeter=centerPerimeter;snapToPoint=1;strokeWidth=5;strokeColor=#0000FF;fontStyle=0;fontSize=30;movable=1;deletable=1;editable=1;locked=0;connectable=1;spacing=6;fontFamily=Helvetica;" parent="Hu4YVAxkf72-brbfAEm7-1" vertex="1">
          <mxGeometry x="198.24598240469197" y="78.61540621302356" width="27.800586510263933" height="39.307703106511845" as="geometry" />
        </mxCell>
        <mxCell id="9kNGfoyaYw8XRan4NpMP-7" value="" style="shape=waypoint;sketch=0;fillStyle=solid;size=6;pointerEvents=1;points=[];fillColor=none;resizable=1;rotatable=1;perimeter=centerPerimeter;snapToPoint=1;strokeWidth=5;strokeColor=#0000FF;fontStyle=0;fontSize=30;movable=1;deletable=1;editable=1;locked=0;connectable=1;spacing=6;fontFamily=Helvetica;" parent="Hu4YVAxkf72-brbfAEm7-1" vertex="1">
          <mxGeometry x="217.7063929618767" y="157.23081242604724" width="27.800586510263933" height="39.307703106511845" as="geometry" />
        </mxCell>
        <mxCell id="9kNGfoyaYw8XRan4NpMP-8" value="" style="shape=waypoint;sketch=0;fillStyle=solid;size=6;pointerEvents=1;points=[];fillColor=none;resizable=1;rotatable=1;perimeter=centerPerimeter;snapToPoint=1;strokeWidth=5;strokeColor=#0000FF;fontStyle=0;fontSize=30;movable=1;deletable=1;editable=1;locked=0;connectable=1;spacing=6;fontFamily=Helvetica;" parent="Hu4YVAxkf72-brbfAEm7-1" vertex="1">
          <mxGeometry x="184.34568914956" y="235.8462186390709" width="27.800586510263933" height="39.307703106511845" as="geometry" />
        </mxCell>
        <mxCell id="9kNGfoyaYw8XRan4NpMP-9" value="" style="shape=waypoint;sketch=0;fillStyle=solid;size=6;pointerEvents=1;points=[];fillColor=none;resizable=1;rotatable=1;perimeter=centerPerimeter;snapToPoint=1;strokeWidth=5;strokeColor=#0000FF;fontStyle=0;fontSize=30;movable=1;deletable=1;editable=1;locked=0;connectable=1;spacing=6;fontFamily=Helvetica;" parent="Hu4YVAxkf72-brbfAEm7-1" vertex="1">
          <mxGeometry x="128.74451612903212" y="176.88466397930318" width="27.800586510263933" height="39.307703106511845" as="geometry" />
        </mxCell>
        <mxCell id="9kNGfoyaYw8XRan4NpMP-10" value="" style="shape=waypoint;sketch=0;fillStyle=solid;size=6;pointerEvents=1;points=[];fillColor=none;resizable=1;rotatable=1;perimeter=centerPerimeter;snapToPoint=1;strokeWidth=5;strokeColor=#0000FF;fontStyle=0;fontSize=30;movable=1;deletable=1;editable=1;locked=0;connectable=1;spacing=6;fontFamily=Helvetica;" parent="Hu4YVAxkf72-brbfAEm7-1" vertex="1">
          <mxGeometry x="177.395542521994" y="157.23081242604724" width="27.800586510263933" height="39.307703106511845" as="geometry" />
        </mxCell>
        <mxCell id="9kNGfoyaYw8XRan4NpMP-11" value="" style="shape=waypoint;sketch=0;fillStyle=solid;size=6;pointerEvents=1;points=[];fillColor=none;resizable=1;rotatable=1;perimeter=centerPerimeter;snapToPoint=1;strokeWidth=5;strokeColor=#0000FF;fontStyle=0;fontSize=30;movable=1;deletable=1;editable=1;locked=0;connectable=1;spacing=6;fontFamily=Helvetica;" parent="Hu4YVAxkf72-brbfAEm7-1" vertex="1">
          <mxGeometry x="114.85812316715561" y="78.61540621302356" width="27.800586510263933" height="39.307703106511845" as="geometry" />
        </mxCell>
        <mxCell id="9kNGfoyaYw8XRan4NpMP-12" value="" style="endArrow=none;html=1;rounded=0;fontStyle=0;fontSize=30;movable=1;resizable=1;rotatable=1;deletable=1;editable=1;locked=0;connectable=1;spacing=6;fontFamily=Helvetica;" parent="Hu4YVAxkf72-brbfAEm7-1" source="9kNGfoyaYw8XRan4NpMP-4" edge="1">
          <mxGeometry width="50" height="50" relative="1" as="geometry">
            <mxPoint x="184.34568914956" y="373.4231795118624" as="sourcePoint" />
            <mxPoint x="142.64480938416406" y="196.53851553255902" as="targetPoint" />
          </mxGeometry>
        </mxCell>
        <mxCell id="9kNGfoyaYw8XRan4NpMP-13" value="" style="endArrow=none;html=1;rounded=0;exitX=0.687;exitY=0.893;exitDx=0;exitDy=0;exitPerimeter=0;entryX=0.05;entryY=0.767;entryDx=0;entryDy=0;entryPerimeter=0;fontStyle=0;fontSize=30;movable=1;resizable=1;rotatable=1;deletable=1;editable=1;locked=0;connectable=1;spacing=6;fontFamily=Helvetica;" parent="Hu4YVAxkf72-brbfAEm7-1" source="9kNGfoyaYw8XRan4NpMP-9" target="9kNGfoyaYw8XRan4NpMP-10" edge="1">
          <mxGeometry width="50" height="50" relative="1" as="geometry">
            <mxPoint x="184.34568914956" y="373.4231795118624" as="sourcePoint" />
            <mxPoint x="253.84715542521977" y="275.1539217455827" as="targetPoint" />
          </mxGeometry>
        </mxCell>
        <mxCell id="9kNGfoyaYw8XRan4NpMP-14" value="" style="endArrow=none;html=1;rounded=0;entryX=0.27;entryY=0.928;entryDx=0;entryDy=0;entryPerimeter=0;fontStyle=0;fontSize=30;movable=1;resizable=1;rotatable=1;deletable=1;editable=1;locked=0;connectable=1;spacing=6;fontFamily=Helvetica;" parent="Hu4YVAxkf72-brbfAEm7-1" source="9kNGfoyaYw8XRan4NpMP-5" target="9kNGfoyaYw8XRan4NpMP-9" edge="1">
          <mxGeometry width="50" height="50" relative="1" as="geometry">
            <mxPoint x="142.64480938416406" y="373.4231795118624" as="sourcePoint" />
            <mxPoint x="212.14627565982394" y="275.1539217455827" as="targetPoint" />
          </mxGeometry>
        </mxCell>
        <mxCell id="9kNGfoyaYw8XRan4NpMP-15" value="" style="rounded=0;whiteSpace=wrap;html=1;fontStyle=0;fontSize=30;movable=1;resizable=1;rotatable=1;deletable=1;editable=1;locked=0;connectable=1;spacing=6;fontFamily=Helvetica;" parent="Hu4YVAxkf72-brbfAEm7-1" vertex="1">
          <mxGeometry x="78.35595307917878" y="94.3384874556283" width="210.24193548387103" height="235.846218639071" as="geometry" />
        </mxCell>
        <mxCell id="9kNGfoyaYw8XRan4NpMP-16" value="" style="shape=waypoint;sketch=0;fillStyle=solid;size=6;pointerEvents=1;points=[];fillColor=none;resizable=1;rotatable=1;perimeter=centerPerimeter;snapToPoint=1;strokeWidth=5;strokeColor=#0000FF;fontStyle=0;fontSize=30;movable=1;deletable=1;editable=1;locked=0;connectable=1;spacing=6;fontFamily=Helvetica;" parent="Hu4YVAxkf72-brbfAEm7-1" vertex="1">
          <mxGeometry x="100.06821114369474" y="153.30004211539605" width="27.800586510263933" height="39.307703106511845" as="geometry" />
        </mxCell>
        <mxCell id="9kNGfoyaYw8XRan4NpMP-17" value="" style="shape=waypoint;sketch=0;fillStyle=solid;size=6;pointerEvents=1;points=[];fillColor=none;resizable=1;rotatable=1;perimeter=centerPerimeter;snapToPoint=1;strokeWidth=5;strokeColor=#0000FF;fontStyle=0;fontSize=30;movable=1;deletable=1;editable=1;locked=0;connectable=1;spacing=6;fontFamily=Helvetica;" parent="Hu4YVAxkf72-brbfAEm7-1" vertex="1">
          <mxGeometry x="162.61953079178855" y="153.30004211539605" width="27.800586510263933" height="39.307703106511845" as="geometry" />
        </mxCell>
        <mxCell id="9kNGfoyaYw8XRan4NpMP-18" value="" style="shape=waypoint;sketch=0;fillStyle=solid;size=6;pointerEvents=1;points=[];fillColor=none;resizable=1;rotatable=1;perimeter=centerPerimeter;snapToPoint=1;strokeWidth=5;strokeColor=#0000FF;fontStyle=0;fontSize=30;movable=1;deletable=1;editable=1;locked=0;connectable=1;spacing=6;fontFamily=Helvetica;" parent="Hu4YVAxkf72-brbfAEm7-1" vertex="1">
          <mxGeometry x="118.13859237536629" y="251.5692998816756" width="27.800586510263933" height="39.307703106511845" as="geometry" />
        </mxCell>
        <mxCell id="9kNGfoyaYw8XRan4NpMP-19" value="" style="shape=waypoint;sketch=0;fillStyle=solid;size=6;pointerEvents=1;points=[];fillColor=none;resizable=1;rotatable=1;perimeter=centerPerimeter;snapToPoint=1;strokeWidth=5;strokeColor=#0000FF;fontStyle=0;fontSize=30;movable=1;deletable=1;editable=1;locked=0;connectable=1;spacing=6;fontFamily=Helvetica;" parent="Hu4YVAxkf72-brbfAEm7-1" vertex="1">
          <mxGeometry x="225.17085043988243" y="113.9923390088842" width="27.800586510263933" height="39.307703106511845" as="geometry" />
        </mxCell>
        <mxCell id="9kNGfoyaYw8XRan4NpMP-20" value="" style="shape=waypoint;sketch=0;fillStyle=solid;size=6;pointerEvents=1;points=[];fillColor=none;resizable=1;rotatable=1;perimeter=centerPerimeter;snapToPoint=1;strokeWidth=5;strokeColor=#0000FF;fontStyle=0;fontSize=30;movable=1;deletable=1;editable=1;locked=0;connectable=1;spacing=6;fontFamily=Helvetica;" parent="Hu4YVAxkf72-brbfAEm7-1" vertex="1">
          <mxGeometry x="244.63126099706716" y="192.60774522190786" width="27.800586510263933" height="39.307703106511845" as="geometry" />
        </mxCell>
        <mxCell id="9kNGfoyaYw8XRan4NpMP-21" value="" style="shape=waypoint;sketch=0;fillStyle=solid;size=6;pointerEvents=1;points=[];fillColor=none;resizable=1;rotatable=1;perimeter=centerPerimeter;snapToPoint=1;strokeWidth=5;strokeColor=#0000FF;fontStyle=0;fontSize=30;movable=1;deletable=1;editable=1;locked=0;connectable=1;spacing=6;fontFamily=Helvetica;" parent="Hu4YVAxkf72-brbfAEm7-1" vertex="1">
          <mxGeometry x="211.27055718475043" y="271.22315143493154" width="27.800586510263933" height="39.307703106511845" as="geometry" />
        </mxCell>
        <mxCell id="9kNGfoyaYw8XRan4NpMP-22" value="" style="shape=waypoint;sketch=0;fillStyle=solid;size=6;pointerEvents=1;points=[];fillColor=none;resizable=1;rotatable=1;perimeter=centerPerimeter;snapToPoint=1;strokeWidth=5;strokeColor=#0000FF;fontStyle=0;fontSize=30;movable=1;deletable=1;editable=1;locked=0;connectable=1;spacing=6;fontFamily=Helvetica;" parent="Hu4YVAxkf72-brbfAEm7-1" vertex="1">
          <mxGeometry x="155.6693841642226" y="212.26159677516392" width="27.800586510263933" height="39.307703106511845" as="geometry" />
        </mxCell>
        <mxCell id="9kNGfoyaYw8XRan4NpMP-23" value="" style="shape=waypoint;sketch=0;fillStyle=solid;size=6;pointerEvents=1;points=[];fillColor=none;resizable=1;rotatable=1;perimeter=centerPerimeter;snapToPoint=1;strokeWidth=5;strokeColor=#0000FF;fontStyle=0;fontSize=30;movable=1;deletable=1;editable=1;locked=0;connectable=1;spacing=6;fontFamily=Helvetica;" parent="Hu4YVAxkf72-brbfAEm7-1" vertex="1">
          <mxGeometry x="204.3204105571845" y="192.60774522190786" width="27.800586510263933" height="39.307703106511845" as="geometry" />
        </mxCell>
        <mxCell id="9kNGfoyaYw8XRan4NpMP-24" value="" style="shape=waypoint;sketch=0;fillStyle=solid;size=6;pointerEvents=1;points=[];fillColor=none;resizable=1;rotatable=1;perimeter=centerPerimeter;snapToPoint=1;strokeWidth=5;strokeColor=#0000FF;fontStyle=0;fontSize=30;movable=1;deletable=1;editable=1;locked=0;connectable=1;spacing=6;fontFamily=Helvetica;" parent="Hu4YVAxkf72-brbfAEm7-1" vertex="1">
          <mxGeometry x="141.78299120234604" y="113.9923390088842" width="27.800586510263933" height="39.307703106511845" as="geometry" />
        </mxCell>
        <mxCell id="9kNGfoyaYw8XRan4NpMP-25" value="" style="endArrow=none;html=1;rounded=0;fontStyle=0;fontSize=30;movable=1;resizable=1;rotatable=1;deletable=1;editable=1;locked=0;connectable=1;spacing=6;fontFamily=Helvetica;" parent="Hu4YVAxkf72-brbfAEm7-1" source="9kNGfoyaYw8XRan4NpMP-17" edge="1">
          <mxGeometry width="50" height="50" relative="1" as="geometry">
            <mxPoint x="211.27055718475043" y="408.800112307723" as="sourcePoint" />
            <mxPoint x="169.56967741935458" y="231.91544832841967" as="targetPoint" />
          </mxGeometry>
        </mxCell>
        <mxCell id="9kNGfoyaYw8XRan4NpMP-26" value="" style="endArrow=none;html=1;rounded=0;exitX=0.687;exitY=0.893;exitDx=0;exitDy=0;exitPerimeter=0;entryX=0.05;entryY=0.767;entryDx=0;entryDy=0;entryPerimeter=0;fontStyle=0;fontSize=30;movable=1;resizable=1;rotatable=1;deletable=1;editable=1;locked=0;connectable=1;spacing=6;fontFamily=Helvetica;" parent="Hu4YVAxkf72-brbfAEm7-1" source="9kNGfoyaYw8XRan4NpMP-22" target="9kNGfoyaYw8XRan4NpMP-23" edge="1">
          <mxGeometry width="50" height="50" relative="1" as="geometry">
            <mxPoint x="211.27055718475043" y="408.800112307723" as="sourcePoint" />
            <mxPoint x="280.77202346041037" y="310.5308545414434" as="targetPoint" />
          </mxGeometry>
        </mxCell>
        <mxCell id="9kNGfoyaYw8XRan4NpMP-27" value="" style="endArrow=none;html=1;rounded=0;entryX=0.27;entryY=0.928;entryDx=0;entryDy=0;entryPerimeter=0;fontStyle=0;fontSize=30;movable=1;resizable=1;rotatable=1;deletable=1;editable=1;locked=0;connectable=1;spacing=6;fontFamily=Helvetica;" parent="Hu4YVAxkf72-brbfAEm7-1" source="9kNGfoyaYw8XRan4NpMP-18" target="9kNGfoyaYw8XRan4NpMP-22" edge="1">
          <mxGeometry width="50" height="50" relative="1" as="geometry">
            <mxPoint x="169.56967741935458" y="408.800112307723" as="sourcePoint" />
            <mxPoint x="239.07114369501437" y="310.5308545414434" as="targetPoint" />
          </mxGeometry>
        </mxCell>
        <mxCell id="9kNGfoyaYw8XRan4NpMP-28" value="" style="rounded=0;whiteSpace=wrap;html=1;fontStyle=0;fontSize=30;movable=1;resizable=1;rotatable=1;deletable=1;editable=1;locked=0;connectable=1;spacing=6;fontFamily=Helvetica;" parent="Hu4YVAxkf72-brbfAEm7-1" vertex="1">
          <mxGeometry x="133.9432258064518" y="172.953893668652" width="210.24193548387103" height="235.846218639071" as="geometry" />
        </mxCell>
        <mxCell id="9kNGfoyaYw8XRan4NpMP-29" value="" style="shape=waypoint;sketch=0;fillStyle=solid;size=6;pointerEvents=1;points=[];fillColor=none;resizable=1;rotatable=1;perimeter=centerPerimeter;snapToPoint=1;strokeWidth=5;strokeColor=#0000FF;fontStyle=0;fontSize=30;movable=1;deletable=1;editable=1;locked=0;connectable=1;spacing=6;fontFamily=Helvetica;" parent="Hu4YVAxkf72-brbfAEm7-1" vertex="1">
          <mxGeometry x="155.65548387096777" y="231.91544832841967" width="27.800586510263933" height="39.307703106511845" as="geometry" />
        </mxCell>
        <mxCell id="9kNGfoyaYw8XRan4NpMP-30" value="" style="shape=waypoint;sketch=0;fillStyle=solid;size=6;pointerEvents=1;points=[];fillColor=none;resizable=1;rotatable=1;perimeter=centerPerimeter;snapToPoint=1;strokeWidth=5;strokeColor=#0000FF;fontStyle=0;fontSize=30;movable=1;deletable=1;editable=1;locked=0;connectable=1;spacing=6;fontFamily=Helvetica;" parent="Hu4YVAxkf72-brbfAEm7-1" vertex="1">
          <mxGeometry x="218.20680351906162" y="231.91544832841967" width="27.800586510263933" height="39.307703106511845" as="geometry" />
        </mxCell>
        <mxCell id="9kNGfoyaYw8XRan4NpMP-31" value="" style="shape=waypoint;sketch=0;fillStyle=solid;size=6;pointerEvents=1;points=[];fillColor=none;resizable=1;rotatable=1;perimeter=centerPerimeter;snapToPoint=1;strokeWidth=5;strokeColor=#0000FF;fontStyle=0;fontSize=30;movable=1;deletable=1;editable=1;locked=0;connectable=1;spacing=6;fontFamily=Helvetica;" parent="Hu4YVAxkf72-brbfAEm7-1" vertex="1">
          <mxGeometry x="173.72586510263932" y="330.18470609469927" width="27.800586510263933" height="39.307703106511845" as="geometry" />
        </mxCell>
        <mxCell id="9kNGfoyaYw8XRan4NpMP-32" value="" style="shape=waypoint;sketch=0;fillStyle=solid;size=6;pointerEvents=1;points=[];fillColor=none;resizable=1;rotatable=1;perimeter=centerPerimeter;snapToPoint=1;strokeWidth=5;strokeColor=#0000FF;fontStyle=0;fontSize=30;movable=1;deletable=1;editable=1;locked=0;connectable=1;spacing=6;fontFamily=Helvetica;" parent="Hu4YVAxkf72-brbfAEm7-1" vertex="1">
          <mxGeometry x="280.7581231671555" y="192.60774522190786" width="27.800586510263933" height="39.307703106511845" as="geometry" />
        </mxCell>
        <mxCell id="9kNGfoyaYw8XRan4NpMP-33" value="" style="shape=waypoint;sketch=0;fillStyle=solid;size=6;pointerEvents=1;points=[];fillColor=none;resizable=1;rotatable=1;perimeter=centerPerimeter;snapToPoint=1;strokeWidth=5;strokeColor=#0000FF;fontStyle=0;fontSize=30;movable=1;deletable=1;editable=1;locked=0;connectable=1;spacing=6;fontFamily=Helvetica;" parent="Hu4YVAxkf72-brbfAEm7-1" vertex="1">
          <mxGeometry x="300.2185337243403" y="271.22315143493154" width="27.800586510263933" height="39.307703106511845" as="geometry" />
        </mxCell>
        <mxCell id="9kNGfoyaYw8XRan4NpMP-34" value="" style="shape=waypoint;sketch=0;fillStyle=solid;size=6;pointerEvents=1;points=[];fillColor=none;resizable=1;rotatable=1;perimeter=centerPerimeter;snapToPoint=1;strokeWidth=5;strokeColor=#0000FF;fontStyle=0;fontSize=30;movable=1;deletable=1;editable=1;locked=0;connectable=1;spacing=6;fontFamily=Helvetica;" parent="Hu4YVAxkf72-brbfAEm7-1" vertex="1">
          <mxGeometry x="266.8578299120235" y="349.8385576479552" width="27.800586510263933" height="39.307703106511845" as="geometry" />
        </mxCell>
        <mxCell id="9kNGfoyaYw8XRan4NpMP-35" value="" style="shape=waypoint;sketch=0;fillStyle=solid;size=6;pointerEvents=1;points=[];fillColor=none;resizable=1;rotatable=1;perimeter=centerPerimeter;snapToPoint=1;strokeWidth=5;strokeColor=#FF0000;fontStyle=0;fontSize=30;movable=1;deletable=1;editable=1;locked=0;connectable=1;spacing=6;fontFamily=Helvetica;" parent="Hu4YVAxkf72-brbfAEm7-1" vertex="1">
          <mxGeometry x="211.2566568914957" y="290.8770029881874" width="27.800586510263933" height="39.307703106511845" as="geometry" />
        </mxCell>
        <mxCell id="9kNGfoyaYw8XRan4NpMP-36" value="" style="shape=waypoint;sketch=0;fillStyle=solid;size=6;pointerEvents=1;points=[];fillColor=none;resizable=1;rotatable=1;perimeter=centerPerimeter;snapToPoint=1;strokeWidth=5;strokeColor=#0000FF;fontStyle=0;fontSize=30;movable=1;deletable=1;editable=1;locked=0;connectable=1;spacing=6;fontFamily=Helvetica;" parent="Hu4YVAxkf72-brbfAEm7-1" vertex="1">
          <mxGeometry x="259.90768328445756" y="271.22315143493154" width="27.800586510263933" height="39.307703106511845" as="geometry" />
        </mxCell>
        <mxCell id="9kNGfoyaYw8XRan4NpMP-37" value="" style="shape=waypoint;sketch=0;fillStyle=solid;size=6;pointerEvents=1;points=[];fillColor=none;resizable=1;rotatable=1;perimeter=centerPerimeter;snapToPoint=1;strokeWidth=5;strokeColor=#0000FF;fontStyle=0;fontSize=30;movable=1;deletable=1;editable=1;locked=0;connectable=1;spacing=6;fontFamily=Helvetica;" parent="Hu4YVAxkf72-brbfAEm7-1" vertex="1">
          <mxGeometry x="197.37026392961855" y="192.60774522190786" width="27.800586510263933" height="39.307703106511845" as="geometry" />
        </mxCell>
        <mxCell id="9kNGfoyaYw8XRan4NpMP-38" value="" style="endArrow=none;html=1;rounded=0;fontStyle=0;fontSize=30;movable=1;resizable=1;rotatable=1;deletable=1;editable=1;locked=0;connectable=1;spacing=6;fontFamily=Helvetica;" parent="Hu4YVAxkf72-brbfAEm7-1" source="9kNGfoyaYw8XRan4NpMP-30" edge="1">
          <mxGeometry width="50" height="50" relative="1" as="geometry">
            <mxPoint x="266.8578299120235" y="487.4155185207467" as="sourcePoint" />
            <mxPoint x="225.1569501466277" y="310.5308545414434" as="targetPoint" />
          </mxGeometry>
        </mxCell>
        <mxCell id="9kNGfoyaYw8XRan4NpMP-39" value="" style="endArrow=none;html=1;rounded=0;exitX=0.687;exitY=0.893;exitDx=0;exitDy=0;exitPerimeter=0;entryX=0.05;entryY=0.767;entryDx=0;entryDy=0;entryPerimeter=0;fontStyle=0;fontSize=30;movable=1;resizable=1;rotatable=1;deletable=1;editable=1;locked=0;connectable=1;spacing=6;fontFamily=Helvetica;" parent="Hu4YVAxkf72-brbfAEm7-1" source="9kNGfoyaYw8XRan4NpMP-35" target="9kNGfoyaYw8XRan4NpMP-36" edge="1">
          <mxGeometry width="50" height="50" relative="1" as="geometry">
            <mxPoint x="266.8578299120235" y="487.4155185207467" as="sourcePoint" />
            <mxPoint x="336.3592961876833" y="389.1462607544671" as="targetPoint" />
          </mxGeometry>
        </mxCell>
        <mxCell id="9kNGfoyaYw8XRan4NpMP-40" value="" style="endArrow=none;html=1;rounded=0;entryX=0.27;entryY=0.928;entryDx=0;entryDy=0;entryPerimeter=0;fontStyle=0;fontSize=30;movable=1;resizable=1;rotatable=1;deletable=1;editable=1;locked=0;connectable=1;spacing=6;fontFamily=Helvetica;" parent="Hu4YVAxkf72-brbfAEm7-1" source="9kNGfoyaYw8XRan4NpMP-31" target="9kNGfoyaYw8XRan4NpMP-35" edge="1">
          <mxGeometry width="50" height="50" relative="1" as="geometry">
            <mxPoint x="225.1569501466277" y="487.4155185207467" as="sourcePoint" />
            <mxPoint x="294.6584164222874" y="389.1462607544671" as="targetPoint" />
          </mxGeometry>
        </mxCell>
        <mxCell id="9kNGfoyaYw8XRan4NpMP-41" value="" style="endArrow=classic;html=1;rounded=0;fontStyle=0;fontSize=30;movable=1;resizable=1;rotatable=1;deletable=1;editable=1;locked=0;connectable=1;spacing=6;fontFamily=Helvetica;" parent="Hu4YVAxkf72-brbfAEm7-1" edge="1">
          <mxGeometry width="50" height="50" relative="1" as="geometry">
            <mxPoint x="45.342756598240335" y="314.4616248520946" as="sourcePoint" />
            <mxPoint x="119.01431085043976" y="412.73088261837427" as="targetPoint" />
          </mxGeometry>
        </mxCell>
        <mxCell id="9kNGfoyaYw8XRan4NpMP-42" value="" style="endArrow=none;dashed=1;html=1;dashPattern=1 3;strokeWidth=2;rounded=0;fontStyle=0;fontSize=30;movable=1;resizable=1;rotatable=1;deletable=1;editable=1;locked=0;connectable=1;spacing=6;fontFamily=Helvetica;" parent="Hu4YVAxkf72-brbfAEm7-1" edge="1">
          <mxGeometry width="50" height="50" relative="1" as="geometry">
            <mxPoint x="87.04363636363621" y="334.1154764053505" as="sourcePoint" />
            <mxPoint x="128.74451612903212" y="393.0770310651183" as="targetPoint" />
          </mxGeometry>
        </mxCell>
        <mxCell id="9kNGfoyaYw8XRan4NpMP-43" value="&lt;font&gt;&lt;span&gt;时间&lt;/span&gt;&lt;/font&gt;" style="text;html=1;align=center;verticalAlign=middle;resizable=1;points=[];autosize=1;strokeColor=none;fillColor=none;fontSize=30;fontStyle=0;movable=1;rotatable=1;deletable=1;editable=1;locked=0;connectable=1;spacing=6;fontFamily=Helvetica;" parent="Hu4YVAxkf72-brbfAEm7-1" vertex="1">
          <mxGeometry x="4.86181818181803" y="344.0497353028627" width="90" height="60" as="geometry" />
        </mxCell>
        <mxCell id="9kNGfoyaYw8XRan4NpMP-44" value="&lt;font&gt;&lt;span&gt;距离&lt;/span&gt;&lt;/font&gt;" style="text;html=1;align=center;verticalAlign=middle;resizable=1;points=[];autosize=1;strokeColor=none;fillColor=none;fontStyle=0;fontSize=30;movable=1;rotatable=1;deletable=1;editable=1;locked=0;connectable=1;spacing=6;fontFamily=Helvetica;" parent="Hu4YVAxkf72-brbfAEm7-1" vertex="1">
          <mxGeometry x="199.46592375366558" y="317.08465097179555" width="90" height="60" as="geometry" />
        </mxCell>
        <mxCell id="9kNGfoyaYw8XRan4NpMP-45" value="&lt;font&gt;&lt;span&gt;空气污染数据&lt;/span&gt;&lt;/font&gt;" style="text;html=1;align=center;verticalAlign=middle;resizable=1;points=[];autosize=1;strokeColor=none;fillColor=none;fontSize=30;fontStyle=0;movable=1;rotatable=1;deletable=1;editable=1;locked=0;connectable=1;spacing=6;fontFamily=Helvetica;" parent="Hu4YVAxkf72-brbfAEm7-1" vertex="1">
          <mxGeometry x="120.57726239926427" y="407.49236811677275" width="210" height="60" as="geometry" />
        </mxCell>
        <mxCell id="9kNGfoyaYw8XRan4NpMP-46" value="" style="rounded=0;whiteSpace=wrap;html=1;fontStyle=0;fontSize=30;movable=1;resizable=1;rotatable=1;deletable=1;editable=1;locked=0;connectable=1;spacing=6;fontFamily=Helvetica;" parent="Hu4YVAxkf72-brbfAEm7-1" vertex="1">
          <mxGeometry x="50.56926686216962" y="482.757555702625" width="210.24193548387103" height="235.846218639071" as="geometry" />
        </mxCell>
        <mxCell id="9kNGfoyaYw8XRan4NpMP-47" value="" style="shape=waypoint;sketch=0;fillStyle=solid;size=6;pointerEvents=1;points=[];fillColor=none;resizable=1;rotatable=1;perimeter=centerPerimeter;snapToPoint=1;strokeWidth=5;strokeColor=#0000FF;fontStyle=0;fontSize=30;movable=1;deletable=1;editable=1;locked=0;connectable=1;spacing=6;fontFamily=Helvetica;" parent="Hu4YVAxkf72-brbfAEm7-1" vertex="1">
          <mxGeometry x="72.28152492668625" y="541.7191103623927" width="27.800586510263933" height="39.307703106511845" as="geometry" />
        </mxCell>
        <mxCell id="9kNGfoyaYw8XRan4NpMP-48" value="" style="shape=waypoint;sketch=0;fillStyle=solid;size=6;pointerEvents=1;points=[];fillColor=none;resizable=1;rotatable=1;perimeter=centerPerimeter;snapToPoint=1;strokeWidth=5;strokeColor=#0000FF;fontStyle=0;fontSize=30;movable=1;deletable=1;editable=1;locked=0;connectable=1;spacing=6;fontFamily=Helvetica;" parent="Hu4YVAxkf72-brbfAEm7-1" vertex="1">
          <mxGeometry x="134.8328445747801" y="541.7191103623927" width="27.800586510263933" height="39.307703106511845" as="geometry" />
        </mxCell>
        <mxCell id="9kNGfoyaYw8XRan4NpMP-49" value="" style="shape=waypoint;sketch=0;fillStyle=solid;size=6;pointerEvents=1;points=[];fillColor=none;resizable=1;rotatable=1;perimeter=centerPerimeter;snapToPoint=1;strokeWidth=5;strokeColor=#0000FF;fontStyle=0;fontSize=30;movable=1;deletable=1;editable=1;locked=0;connectable=1;spacing=6;fontFamily=Helvetica;" parent="Hu4YVAxkf72-brbfAEm7-1" vertex="1">
          <mxGeometry x="90.3519061583578" y="639.9883681286723" width="27.800586510263933" height="39.307703106511845" as="geometry" />
        </mxCell>
        <mxCell id="9kNGfoyaYw8XRan4NpMP-50" value="" style="shape=waypoint;sketch=0;fillStyle=solid;size=6;pointerEvents=1;points=[];fillColor=none;resizable=1;rotatable=1;perimeter=centerPerimeter;snapToPoint=1;strokeWidth=5;strokeColor=#0000FF;fontStyle=0;fontSize=30;movable=1;deletable=1;editable=1;locked=0;connectable=1;spacing=6;fontFamily=Helvetica;" parent="Hu4YVAxkf72-brbfAEm7-1" vertex="1">
          <mxGeometry x="197.38416422287392" y="502.41140725588093" width="27.800586510263933" height="39.307703106511845" as="geometry" />
        </mxCell>
        <mxCell id="9kNGfoyaYw8XRan4NpMP-51" value="" style="shape=waypoint;sketch=0;fillStyle=solid;size=6;pointerEvents=1;points=[];fillColor=none;resizable=1;rotatable=1;perimeter=centerPerimeter;snapToPoint=1;strokeWidth=5;strokeColor=#0000FF;fontStyle=0;fontSize=30;movable=1;deletable=1;editable=1;locked=0;connectable=1;spacing=6;fontFamily=Helvetica;" parent="Hu4YVAxkf72-brbfAEm7-1" vertex="1">
          <mxGeometry x="216.84457478005865" y="581.0268134689046" width="27.800586510263933" height="39.307703106511845" as="geometry" />
        </mxCell>
        <mxCell id="9kNGfoyaYw8XRan4NpMP-52" value="" style="shape=waypoint;sketch=0;fillStyle=solid;size=6;pointerEvents=1;points=[];fillColor=none;resizable=1;rotatable=1;perimeter=centerPerimeter;snapToPoint=1;strokeWidth=5;strokeColor=#0000FF;fontStyle=0;fontSize=30;movable=1;deletable=1;editable=1;locked=0;connectable=1;spacing=6;fontFamily=Helvetica;" parent="Hu4YVAxkf72-brbfAEm7-1" vertex="1">
          <mxGeometry x="183.48387096774198" y="659.6422196819282" width="27.800586510263933" height="39.307703106511845" as="geometry" />
        </mxCell>
        <mxCell id="9kNGfoyaYw8XRan4NpMP-53" value="" style="shape=waypoint;sketch=0;fillStyle=solid;size=6;pointerEvents=1;points=[];fillColor=none;resizable=1;rotatable=1;perimeter=centerPerimeter;snapToPoint=1;strokeWidth=5;strokeColor=#0000FF;fontStyle=0;fontSize=30;movable=1;deletable=1;editable=1;locked=0;connectable=1;spacing=6;fontFamily=Helvetica;" parent="Hu4YVAxkf72-brbfAEm7-1" vertex="1">
          <mxGeometry x="127.88269794721407" y="600.6806650221606" width="27.800586510263933" height="39.307703106511845" as="geometry" />
        </mxCell>
        <mxCell id="9kNGfoyaYw8XRan4NpMP-54" value="" style="shape=waypoint;sketch=0;fillStyle=solid;size=6;pointerEvents=1;points=[];fillColor=none;resizable=1;rotatable=1;perimeter=centerPerimeter;snapToPoint=1;strokeWidth=5;strokeColor=#0000FF;fontStyle=0;fontSize=30;movable=1;deletable=1;editable=1;locked=0;connectable=1;spacing=6;fontFamily=Helvetica;" parent="Hu4YVAxkf72-brbfAEm7-1" vertex="1">
          <mxGeometry x="176.533724340176" y="581.0268134689046" width="27.800586510263933" height="39.307703106511845" as="geometry" />
        </mxCell>
        <mxCell id="9kNGfoyaYw8XRan4NpMP-55" value="" style="shape=waypoint;sketch=0;fillStyle=solid;size=6;pointerEvents=1;points=[];fillColor=none;resizable=1;rotatable=1;perimeter=centerPerimeter;snapToPoint=1;strokeWidth=5;strokeColor=#0000FF;fontStyle=0;fontSize=30;movable=1;deletable=1;editable=1;locked=0;connectable=1;spacing=6;fontFamily=Helvetica;" parent="Hu4YVAxkf72-brbfAEm7-1" vertex="1">
          <mxGeometry x="113.99630498533692" y="502.41140725588093" width="27.800586510263933" height="39.307703106511845" as="geometry" />
        </mxCell>
        <mxCell id="9kNGfoyaYw8XRan4NpMP-56" value="" style="endArrow=none;html=1;rounded=0;fontStyle=0;fontSize=30;movable=1;resizable=1;rotatable=1;deletable=1;editable=1;locked=0;connectable=1;spacing=6;fontFamily=Helvetica;" parent="Hu4YVAxkf72-brbfAEm7-1" source="9kNGfoyaYw8XRan4NpMP-48" edge="1">
          <mxGeometry width="50" height="50" relative="1" as="geometry">
            <mxPoint x="183.48387096774198" y="797.2191805547199" as="sourcePoint" />
            <mxPoint x="141.78299120234604" y="620.3345165754165" as="targetPoint" />
          </mxGeometry>
        </mxCell>
        <mxCell id="9kNGfoyaYw8XRan4NpMP-57" value="" style="endArrow=none;html=1;rounded=0;exitX=0.687;exitY=0.893;exitDx=0;exitDy=0;exitPerimeter=0;entryX=0.05;entryY=0.767;entryDx=0;entryDy=0;entryPerimeter=0;fontStyle=0;fontSize=30;movable=1;resizable=1;rotatable=1;deletable=1;editable=1;locked=0;connectable=1;spacing=6;fontFamily=Helvetica;" parent="Hu4YVAxkf72-brbfAEm7-1" source="9kNGfoyaYw8XRan4NpMP-53" target="9kNGfoyaYw8XRan4NpMP-54" edge="1">
          <mxGeometry width="50" height="50" relative="1" as="geometry">
            <mxPoint x="183.48387096774198" y="797.2191805547199" as="sourcePoint" />
            <mxPoint x="252.98533724340186" y="698.94992278844" as="targetPoint" />
          </mxGeometry>
        </mxCell>
        <mxCell id="9kNGfoyaYw8XRan4NpMP-58" value="" style="endArrow=none;html=1;rounded=0;entryX=0.27;entryY=0.928;entryDx=0;entryDy=0;entryPerimeter=0;fontStyle=0;fontSize=30;movable=1;resizable=1;rotatable=1;deletable=1;editable=1;locked=0;connectable=1;spacing=6;fontFamily=Helvetica;" parent="Hu4YVAxkf72-brbfAEm7-1" source="9kNGfoyaYw8XRan4NpMP-49" target="9kNGfoyaYw8XRan4NpMP-53" edge="1">
          <mxGeometry width="50" height="50" relative="1" as="geometry">
            <mxPoint x="141.78299120234604" y="797.2191805547199" as="sourcePoint" />
            <mxPoint x="211.2844574780059" y="698.94992278844" as="targetPoint" />
          </mxGeometry>
        </mxCell>
        <mxCell id="9kNGfoyaYw8XRan4NpMP-59" value="" style="rounded=0;whiteSpace=wrap;html=1;fontStyle=0;fontSize=30;movable=1;resizable=1;rotatable=1;deletable=1;editable=1;locked=0;connectable=1;spacing=6;fontFamily=Helvetica;" parent="Hu4YVAxkf72-brbfAEm7-1" vertex="1">
          <mxGeometry x="77.49413489736072" y="518.1344884984857" width="210.24193548387103" height="235.846218639071" as="geometry" />
        </mxCell>
        <mxCell id="9kNGfoyaYw8XRan4NpMP-60" value="" style="shape=waypoint;sketch=0;fillStyle=solid;size=6;pointerEvents=1;points=[];fillColor=none;resizable=1;rotatable=1;perimeter=centerPerimeter;snapToPoint=1;strokeWidth=5;strokeColor=#0000FF;fontStyle=0;fontSize=30;movable=1;deletable=1;editable=1;locked=0;connectable=1;spacing=6;fontFamily=Helvetica;" parent="Hu4YVAxkf72-brbfAEm7-1" vertex="1">
          <mxGeometry x="99.2063929618767" y="577.0960431582533" width="27.800586510263933" height="39.307703106511845" as="geometry" />
        </mxCell>
        <mxCell id="9kNGfoyaYw8XRan4NpMP-61" value="" style="shape=waypoint;sketch=0;fillStyle=solid;size=6;pointerEvents=1;points=[];fillColor=none;resizable=1;rotatable=1;perimeter=centerPerimeter;snapToPoint=1;strokeWidth=5;strokeColor=#0000FF;fontStyle=0;fontSize=30;movable=1;deletable=1;editable=1;locked=0;connectable=1;spacing=6;fontFamily=Helvetica;" parent="Hu4YVAxkf72-brbfAEm7-1" vertex="1">
          <mxGeometry x="161.75771260997053" y="577.0960431582533" width="27.800586510263933" height="39.307703106511845" as="geometry" />
        </mxCell>
        <mxCell id="9kNGfoyaYw8XRan4NpMP-62" value="" style="shape=waypoint;sketch=0;fillStyle=solid;size=6;pointerEvents=1;points=[];fillColor=none;resizable=1;rotatable=1;perimeter=centerPerimeter;snapToPoint=1;strokeWidth=5;strokeColor=#0000FF;fontStyle=0;fontSize=30;movable=1;deletable=1;editable=1;locked=0;connectable=1;spacing=6;fontFamily=Helvetica;" parent="Hu4YVAxkf72-brbfAEm7-1" vertex="1">
          <mxGeometry x="117.27677419354828" y="675.3653009245329" width="27.800586510263933" height="39.307703106511845" as="geometry" />
        </mxCell>
        <mxCell id="9kNGfoyaYw8XRan4NpMP-63" value="" style="shape=waypoint;sketch=0;fillStyle=solid;size=6;pointerEvents=1;points=[];fillColor=none;resizable=1;rotatable=1;perimeter=centerPerimeter;snapToPoint=1;strokeWidth=5;strokeColor=#0000FF;fontStyle=0;fontSize=30;movable=1;deletable=1;editable=1;locked=0;connectable=1;spacing=6;fontFamily=Helvetica;" parent="Hu4YVAxkf72-brbfAEm7-1" vertex="1">
          <mxGeometry x="224.30903225806432" y="537.7883400517417" width="27.800586510263933" height="39.307703106511845" as="geometry" />
        </mxCell>
        <mxCell id="9kNGfoyaYw8XRan4NpMP-64" value="" style="shape=waypoint;sketch=0;fillStyle=solid;size=6;pointerEvents=1;points=[];fillColor=none;resizable=1;rotatable=1;perimeter=centerPerimeter;snapToPoint=1;strokeWidth=5;strokeColor=#0000FF;fontStyle=0;fontSize=30;movable=1;deletable=1;editable=1;locked=0;connectable=1;spacing=6;fontFamily=Helvetica;" parent="Hu4YVAxkf72-brbfAEm7-1" vertex="1">
          <mxGeometry x="243.76944281524916" y="616.4037462647653" width="27.800586510263933" height="39.307703106511845" as="geometry" />
        </mxCell>
        <mxCell id="9kNGfoyaYw8XRan4NpMP-65" value="" style="shape=waypoint;sketch=0;fillStyle=solid;size=6;pointerEvents=1;points=[];fillColor=none;resizable=1;rotatable=1;perimeter=centerPerimeter;snapToPoint=1;strokeWidth=5;strokeColor=#0000FF;fontStyle=0;fontSize=30;movable=1;deletable=1;editable=1;locked=0;connectable=1;spacing=6;fontFamily=Helvetica;" parent="Hu4YVAxkf72-brbfAEm7-1" vertex="1">
          <mxGeometry x="210.40873900293246" y="695.0191524777889" width="27.800586510263933" height="39.307703106511845" as="geometry" />
        </mxCell>
        <mxCell id="9kNGfoyaYw8XRan4NpMP-66" value="" style="shape=waypoint;sketch=0;fillStyle=solid;size=6;pointerEvents=1;points=[];fillColor=none;resizable=1;rotatable=1;perimeter=centerPerimeter;snapToPoint=1;strokeWidth=5;strokeColor=#0000FF;fontStyle=0;fontSize=30;movable=1;deletable=1;editable=1;locked=0;connectable=1;spacing=6;fontFamily=Helvetica;" parent="Hu4YVAxkf72-brbfAEm7-1" vertex="1">
          <mxGeometry x="154.80756598240458" y="636.0575978180212" width="27.800586510263933" height="39.307703106511845" as="geometry" />
        </mxCell>
        <mxCell id="9kNGfoyaYw8XRan4NpMP-67" value="" style="shape=waypoint;sketch=0;fillStyle=solid;size=6;pointerEvents=1;points=[];fillColor=none;resizable=1;rotatable=1;perimeter=centerPerimeter;snapToPoint=1;strokeWidth=5;strokeColor=#0000FF;fontStyle=0;fontSize=30;movable=1;deletable=1;editable=1;locked=0;connectable=1;spacing=6;fontFamily=Helvetica;" parent="Hu4YVAxkf72-brbfAEm7-1" vertex="1">
          <mxGeometry x="203.45859237536644" y="616.4037462647653" width="27.800586510263933" height="39.307703106511845" as="geometry" />
        </mxCell>
        <mxCell id="9kNGfoyaYw8XRan4NpMP-68" value="" style="shape=waypoint;sketch=0;fillStyle=solid;size=6;pointerEvents=1;points=[];fillColor=none;resizable=1;rotatable=1;perimeter=centerPerimeter;snapToPoint=1;strokeWidth=5;strokeColor=#0000FF;fontStyle=0;fontSize=30;movable=1;deletable=1;editable=1;locked=0;connectable=1;spacing=6;fontFamily=Helvetica;" parent="Hu4YVAxkf72-brbfAEm7-1" vertex="1">
          <mxGeometry x="140.92117302052742" y="537.7883400517417" width="27.800586510263933" height="39.307703106511845" as="geometry" />
        </mxCell>
        <mxCell id="9kNGfoyaYw8XRan4NpMP-69" value="" style="endArrow=none;html=1;rounded=0;fontStyle=0;fontSize=30;movable=1;resizable=1;rotatable=1;deletable=1;editable=1;locked=0;connectable=1;spacing=6;fontFamily=Helvetica;" parent="Hu4YVAxkf72-brbfAEm7-1" source="9kNGfoyaYw8XRan4NpMP-61" edge="1">
          <mxGeometry width="50" height="50" relative="1" as="geometry">
            <mxPoint x="210.40873900293246" y="832.5961133505805" as="sourcePoint" />
            <mxPoint x="168.70785923753658" y="655.7114493712769" as="targetPoint" />
          </mxGeometry>
        </mxCell>
        <mxCell id="9kNGfoyaYw8XRan4NpMP-70" value="" style="endArrow=none;html=1;rounded=0;exitX=0.687;exitY=0.893;exitDx=0;exitDy=0;exitPerimeter=0;entryX=0.05;entryY=0.767;entryDx=0;entryDy=0;entryPerimeter=0;fontStyle=0;fontSize=30;movable=1;resizable=1;rotatable=1;deletable=1;editable=1;locked=0;connectable=1;spacing=6;fontFamily=Helvetica;" parent="Hu4YVAxkf72-brbfAEm7-1" source="9kNGfoyaYw8XRan4NpMP-66" target="9kNGfoyaYw8XRan4NpMP-67" edge="1">
          <mxGeometry width="50" height="50" relative="1" as="geometry">
            <mxPoint x="210.40873900293246" y="832.5961133505805" as="sourcePoint" />
            <mxPoint x="279.91020527859223" y="734.3268555843008" as="targetPoint" />
          </mxGeometry>
        </mxCell>
        <mxCell id="9kNGfoyaYw8XRan4NpMP-71" value="" style="endArrow=none;html=1;rounded=0;entryX=0.27;entryY=0.928;entryDx=0;entryDy=0;entryPerimeter=0;fontStyle=0;fontSize=30;movable=1;resizable=1;rotatable=1;deletable=1;editable=1;locked=0;connectable=1;spacing=6;fontFamily=Helvetica;" parent="Hu4YVAxkf72-brbfAEm7-1" source="9kNGfoyaYw8XRan4NpMP-62" target="9kNGfoyaYw8XRan4NpMP-66" edge="1">
          <mxGeometry width="50" height="50" relative="1" as="geometry">
            <mxPoint x="168.70785923753658" y="832.5961133505805" as="sourcePoint" />
            <mxPoint x="238.20932551319638" y="734.3268555843008" as="targetPoint" />
          </mxGeometry>
        </mxCell>
        <mxCell id="9kNGfoyaYw8XRan4NpMP-72" value="" style="rounded=0;whiteSpace=wrap;html=1;fontStyle=0;fontSize=30;movable=1;resizable=1;rotatable=1;deletable=1;editable=1;locked=0;connectable=1;spacing=6;fontFamily=Helvetica;" parent="Hu4YVAxkf72-brbfAEm7-1" vertex="1">
          <mxGeometry x="133.08140762463316" y="596.7498947115093" width="210.24193548387103" height="235.846218639071" as="geometry" />
        </mxCell>
        <mxCell id="9kNGfoyaYw8XRan4NpMP-73" value="" style="shape=waypoint;sketch=0;fillStyle=solid;size=6;pointerEvents=1;points=[];fillColor=none;resizable=1;rotatable=1;perimeter=centerPerimeter;snapToPoint=1;strokeWidth=5;strokeColor=#0000FF;fontStyle=0;fontSize=30;movable=1;deletable=1;editable=1;locked=0;connectable=1;spacing=6;fontFamily=Helvetica;" parent="Hu4YVAxkf72-brbfAEm7-1" vertex="1">
          <mxGeometry x="154.79366568914915" y="655.7114493712769" width="27.800586510263933" height="39.307703106511845" as="geometry" />
        </mxCell>
        <mxCell id="9kNGfoyaYw8XRan4NpMP-74" value="" style="shape=waypoint;sketch=0;fillStyle=solid;size=6;pointerEvents=1;points=[];fillColor=none;resizable=1;rotatable=1;perimeter=centerPerimeter;snapToPoint=1;strokeWidth=5;strokeColor=#0000FF;fontStyle=0;fontSize=30;movable=1;deletable=1;editable=1;locked=0;connectable=1;spacing=6;fontFamily=Helvetica;" parent="Hu4YVAxkf72-brbfAEm7-1" vertex="1">
          <mxGeometry x="217.34498533724297" y="655.7114493712769" width="27.800586510263933" height="39.307703106511845" as="geometry" />
        </mxCell>
        <mxCell id="9kNGfoyaYw8XRan4NpMP-75" value="" style="shape=waypoint;sketch=0;fillStyle=solid;size=6;pointerEvents=1;points=[];fillColor=none;resizable=1;rotatable=1;perimeter=centerPerimeter;snapToPoint=1;strokeWidth=5;strokeColor=#0000FF;fontStyle=0;fontSize=30;movable=1;deletable=1;editable=1;locked=0;connectable=1;spacing=6;fontFamily=Helvetica;" parent="Hu4YVAxkf72-brbfAEm7-1" vertex="1">
          <mxGeometry x="172.8640469208206" y="753.9807071375566" width="27.800586510263933" height="39.307703106511845" as="geometry" />
        </mxCell>
        <mxCell id="9kNGfoyaYw8XRan4NpMP-76" value="" style="shape=waypoint;sketch=0;fillStyle=solid;size=6;pointerEvents=1;points=[];fillColor=none;resizable=1;rotatable=1;perimeter=centerPerimeter;snapToPoint=1;strokeWidth=5;strokeColor=#0000FF;fontStyle=0;fontSize=30;movable=1;deletable=1;editable=1;locked=0;connectable=1;spacing=6;fontFamily=Helvetica;" parent="Hu4YVAxkf72-brbfAEm7-1" vertex="1">
          <mxGeometry x="279.8963049853369" y="616.4037462647653" width="27.800586510263933" height="39.307703106511845" as="geometry" />
        </mxCell>
        <mxCell id="9kNGfoyaYw8XRan4NpMP-77" value="" style="shape=waypoint;sketch=0;fillStyle=solid;size=6;pointerEvents=1;points=[];fillColor=none;resizable=1;rotatable=1;perimeter=centerPerimeter;snapToPoint=1;strokeWidth=5;strokeColor=#0000FF;fontStyle=0;fontSize=30;movable=1;deletable=1;editable=1;locked=0;connectable=1;spacing=6;fontFamily=Helvetica;" parent="Hu4YVAxkf72-brbfAEm7-1" vertex="1">
          <mxGeometry x="299.35671554252156" y="695.0191524777889" width="27.800586510263933" height="39.307703106511845" as="geometry" />
        </mxCell>
        <mxCell id="9kNGfoyaYw8XRan4NpMP-78" value="" style="shape=waypoint;sketch=0;fillStyle=solid;size=6;pointerEvents=1;points=[];fillColor=none;resizable=1;rotatable=1;perimeter=centerPerimeter;snapToPoint=1;strokeWidth=5;strokeColor=#0000FF;fontStyle=0;fontSize=30;movable=1;deletable=1;editable=1;locked=0;connectable=1;spacing=6;fontFamily=Helvetica;" parent="Hu4YVAxkf72-brbfAEm7-1" vertex="1">
          <mxGeometry x="265.9960117302049" y="773.6345586908125" width="27.800586510263933" height="39.307703106511845" as="geometry" />
        </mxCell>
        <mxCell id="9kNGfoyaYw8XRan4NpMP-79" value="" style="shape=waypoint;sketch=0;fillStyle=solid;size=6;pointerEvents=1;points=[];fillColor=none;resizable=1;rotatable=1;perimeter=centerPerimeter;snapToPoint=1;strokeWidth=5;strokeColor=#FF0000;fontStyle=0;fontSize=30;movable=1;deletable=1;editable=1;locked=0;connectable=1;spacing=6;fontFamily=Helvetica;" parent="Hu4YVAxkf72-brbfAEm7-1" vertex="1">
          <mxGeometry x="210.39483870967703" y="714.673004031045" width="27.800586510263933" height="39.307703106511845" as="geometry" />
        </mxCell>
        <mxCell id="9kNGfoyaYw8XRan4NpMP-80" value="" style="shape=waypoint;sketch=0;fillStyle=solid;size=6;pointerEvents=1;points=[];fillColor=none;resizable=1;rotatable=1;perimeter=centerPerimeter;snapToPoint=1;strokeWidth=5;strokeColor=#0000FF;fontStyle=0;fontSize=30;movable=1;deletable=1;editable=1;locked=0;connectable=1;spacing=6;fontFamily=Helvetica;" parent="Hu4YVAxkf72-brbfAEm7-1" vertex="1">
          <mxGeometry x="259.04586510263886" y="695.0191524777889" width="27.800586510263933" height="39.307703106511845" as="geometry" />
        </mxCell>
        <mxCell id="9kNGfoyaYw8XRan4NpMP-81" value="" style="shape=waypoint;sketch=0;fillStyle=solid;size=6;pointerEvents=1;points=[];fillColor=none;resizable=1;rotatable=1;perimeter=centerPerimeter;snapToPoint=1;strokeWidth=5;strokeColor=#0000FF;fontStyle=0;fontSize=30;movable=1;deletable=1;editable=1;locked=0;connectable=1;spacing=6;fontFamily=Helvetica;" parent="Hu4YVAxkf72-brbfAEm7-1" vertex="1">
          <mxGeometry x="196.50844574780047" y="616.4037462647653" width="27.800586510263933" height="39.307703106511845" as="geometry" />
        </mxCell>
        <mxCell id="9kNGfoyaYw8XRan4NpMP-82" value="" style="endArrow=none;html=1;rounded=0;fontStyle=0;fontSize=30;movable=1;resizable=1;rotatable=1;deletable=1;editable=1;locked=0;connectable=1;spacing=6;fontFamily=Helvetica;" parent="Hu4YVAxkf72-brbfAEm7-1" source="9kNGfoyaYw8XRan4NpMP-74" edge="1">
          <mxGeometry width="50" height="50" relative="1" as="geometry">
            <mxPoint x="265.9960117302049" y="911.2115195636042" as="sourcePoint" />
            <mxPoint x="224.29513196480897" y="734.3268555843008" as="targetPoint" />
          </mxGeometry>
        </mxCell>
        <mxCell id="9kNGfoyaYw8XRan4NpMP-83" value="" style="endArrow=none;html=1;rounded=0;exitX=0.687;exitY=0.893;exitDx=0;exitDy=0;exitPerimeter=0;entryX=0.05;entryY=0.767;entryDx=0;entryDy=0;entryPerimeter=0;fontStyle=0;fontSize=30;movable=1;resizable=1;rotatable=1;deletable=1;editable=1;locked=0;connectable=1;spacing=6;fontFamily=Helvetica;" parent="Hu4YVAxkf72-brbfAEm7-1" source="9kNGfoyaYw8XRan4NpMP-79" target="9kNGfoyaYw8XRan4NpMP-80" edge="1">
          <mxGeometry width="50" height="50" relative="1" as="geometry">
            <mxPoint x="265.9960117302049" y="911.2115195636042" as="sourcePoint" />
            <mxPoint x="335.49747800586476" y="812.9422617973244" as="targetPoint" />
          </mxGeometry>
        </mxCell>
        <mxCell id="9kNGfoyaYw8XRan4NpMP-84" value="" style="endArrow=none;html=1;rounded=0;entryX=0.27;entryY=0.928;entryDx=0;entryDy=0;entryPerimeter=0;fontStyle=0;fontSize=30;movable=1;resizable=1;rotatable=1;deletable=1;editable=1;locked=0;connectable=1;spacing=6;fontFamily=Helvetica;" parent="Hu4YVAxkf72-brbfAEm7-1" source="9kNGfoyaYw8XRan4NpMP-75" target="9kNGfoyaYw8XRan4NpMP-79" edge="1">
          <mxGeometry width="50" height="50" relative="1" as="geometry">
            <mxPoint x="224.29513196480897" y="911.2115195636042" as="sourcePoint" />
            <mxPoint x="293.79659824046877" y="812.9422617973244" as="targetPoint" />
          </mxGeometry>
        </mxCell>
        <mxCell id="9kNGfoyaYw8XRan4NpMP-85" value="" style="endArrow=classic;html=1;rounded=0;fontStyle=0;fontSize=30;movable=1;resizable=1;rotatable=1;deletable=1;editable=1;locked=0;connectable=1;spacing=6;fontFamily=Helvetica;" parent="Hu4YVAxkf72-brbfAEm7-1" edge="1">
          <mxGeometry width="50" height="50" relative="1" as="geometry">
            <mxPoint x="44.4809384164223" y="738.257625894952" as="sourcePoint" />
            <mxPoint x="118.1524926686217" y="836.5268836612316" as="targetPoint" />
          </mxGeometry>
        </mxCell>
        <mxCell id="9kNGfoyaYw8XRan4NpMP-86" value="" style="endArrow=none;dashed=1;html=1;dashPattern=1 3;strokeWidth=2;rounded=0;fontStyle=0;fontSize=30;movable=1;resizable=1;rotatable=1;deletable=1;editable=1;locked=0;connectable=1;spacing=6;fontFamily=Helvetica;" parent="Hu4YVAxkf72-brbfAEm7-1" edge="1">
          <mxGeometry width="50" height="50" relative="1" as="geometry">
            <mxPoint x="86.18181818181814" y="757.9114774482081" as="sourcePoint" />
            <mxPoint x="127.88269794721407" y="816.8730321079756" as="targetPoint" />
          </mxGeometry>
        </mxCell>
        <mxCell id="9kNGfoyaYw8XRan4NpMP-87" value="&lt;font&gt;&lt;span&gt;时间&lt;/span&gt;&lt;/font&gt;" style="text;html=1;align=center;verticalAlign=middle;resizable=1;points=[];autosize=1;strokeColor=none;fillColor=none;fontSize=30;fontStyle=0;movable=1;rotatable=1;deletable=1;editable=1;locked=0;connectable=1;spacing=6;fontFamily=Helvetica;" parent="Hu4YVAxkf72-brbfAEm7-1" vertex="1">
          <mxGeometry x="4" y="774.292199655188" width="90" height="60" as="geometry" />
        </mxCell>
        <mxCell id="9kNGfoyaYw8XRan4NpMP-88" value="&lt;font&gt;&lt;span&gt;距离&lt;/span&gt;&lt;/font&gt;" style="text;html=1;align=center;verticalAlign=middle;resizable=1;points=[];autosize=1;strokeColor=none;fillColor=none;fontSize=30;fontStyle=0;movable=1;rotatable=1;deletable=1;editable=1;locked=0;connectable=1;spacing=6;fontFamily=Helvetica;" parent="Hu4YVAxkf72-brbfAEm7-1" vertex="1">
          <mxGeometry x="143.0029325513197" y="683.8844825102108" width="90" height="60" as="geometry" />
        </mxCell>
        <mxCell id="9kNGfoyaYw8XRan4NpMP-89" value="&lt;font&gt;&lt;span&gt;气象数据&lt;/span&gt;&lt;/font&gt;" style="text;html=1;align=center;verticalAlign=middle;resizable=1;points=[];autosize=1;strokeColor=none;fillColor=none;fontSize=30;fontStyle=0;movable=1;rotatable=1;deletable=1;editable=1;locked=0;connectable=1;spacing=6;fontFamily=Helvetica;" parent="Hu4YVAxkf72-brbfAEm7-1" vertex="1">
          <mxGeometry x="160.07328332667376" y="831.2883691596304" width="150" height="60" as="geometry" />
        </mxCell>
        <mxCell id="9kNGfoyaYw8XRan4NpMP-90" value="&lt;font&gt;&lt;span&gt;输入数据&lt;/span&gt;&lt;/font&gt;" style="rounded=1;whiteSpace=wrap;html=1;fillColor=#E6E6E6;fontColor=#333333;strokeColor=#333333;direction=south;fontSize=30;fontStyle=0;movable=1;resizable=1;rotatable=1;deletable=1;editable=1;locked=0;connectable=1;spacing=6;fontFamily=Helvetica;" parent="Hu4YVAxkf72-brbfAEm7-1" vertex="1">
          <mxGeometry x="423.9589442815253" y="298.73854360948997" width="55.60117302052787" height="334.11547640535053" as="geometry" />
        </mxCell>
        <mxCell id="9kNGfoyaYw8XRan4NpMP-91" value="&#xa;&lt;span style=&quot;color: rgb(31, 35, 40); font-style: normal; font-variant-ligatures: normal; font-variant-caps: normal; letter-spacing: normal; orphans: 2; text-align: left; text-indent: 0px; text-transform: none; widows: 2; word-spacing: 0px; -webkit-text-stroke-width: 0px; white-space: normal; background-color: rgb(255, 255, 255); text-decoration-thickness: initial; text-decoration-style: initial; text-decoration-color: initial; float: none; display: inline !important;&quot;&gt;基于嵌入&lt;/span&gt;&#xa;&#xa;" style="rounded=1;whiteSpace=wrap;html=1;fillColor=#ffe6cc;strokeColor=#d79b00;fontStyle=0;fontSize=30;movable=1;resizable=1;rotatable=1;deletable=1;editable=1;locked=0;connectable=1;spacing=6;fontFamily=Helvetica;" parent="Hu4YVAxkf72-brbfAEm7-1" vertex="1">
          <mxGeometry x="521.2609970674487" y="186.71158975593124" width="820.1173020527859" height="558.1693841124682" as="geometry" />
        </mxCell>
        <mxCell id="9kNGfoyaYw8XRan4NpMP-92" value="" style="edgeStyle=orthogonalEdgeStyle;rounded=0;orthogonalLoop=1;jettySize=auto;html=1;fontStyle=0;fontSize=30;movable=1;resizable=1;rotatable=1;deletable=1;editable=1;locked=0;connectable=1;spacing=6;fontFamily=Helvetica;" parent="Hu4YVAxkf72-brbfAEm7-1" source="9kNGfoyaYw8XRan4NpMP-93" target="9kNGfoyaYw8XRan4NpMP-106" edge="1">
          <mxGeometry relative="1" as="geometry">
            <mxPoint x="701.9648093841643" y="560.1347692677937" as="targetPoint" />
            <Array as="points">
              <mxPoint x="653.3137829912025" y="540.4809177145377" />
              <mxPoint x="931.3196480938419" y="540.4809177145377" />
            </Array>
          </mxGeometry>
        </mxCell>
        <mxCell id="9kNGfoyaYw8XRan4NpMP-93" value="&lt;span style=&quot;color: rgb(31, 35, 40); text-align: left;&quot;&gt;&lt;font&gt;全局动态邻接矩阵&lt;/font&gt;&lt;/span&gt;" style="ellipse;whiteSpace=wrap;html=1;fontSize=30;fillColor=#fff2cc;strokeColor=#d6b656;labelBackgroundColor=none;fontStyle=0;movable=1;resizable=1;rotatable=1;deletable=1;editable=1;locked=0;connectable=1;spacing=6;fontFamily=Helvetica;" parent="Hu4YVAxkf72-brbfAEm7-1" vertex="1">
          <mxGeometry x="549.0615835777127" y="334.11547640535053" width="208.50439882697955" height="157.23081242604738" as="geometry" />
        </mxCell>
        <mxCell id="9kNGfoyaYw8XRan4NpMP-94" value="" style="edgeStyle=orthogonalEdgeStyle;rounded=0;orthogonalLoop=1;jettySize=auto;html=1;fontStyle=0;fontSize=30;movable=1;resizable=1;rotatable=1;deletable=1;editable=1;locked=0;connectable=1;spacing=6;fontFamily=Helvetica;" parent="Hu4YVAxkf72-brbfAEm7-1" source="9kNGfoyaYw8XRan4NpMP-95" target="9kNGfoyaYw8XRan4NpMP-106" edge="1">
          <mxGeometry relative="1" as="geometry" />
        </mxCell>
        <mxCell id="9kNGfoyaYw8XRan4NpMP-95" value="&lt;span style=&quot;color: rgb(31, 35, 40); text-align: left;&quot;&gt;&lt;font&gt;局部动态邻接矩阵&lt;/font&gt;&lt;/span&gt;" style="ellipse;whiteSpace=wrap;html=1;fontSize=30;fillColor=#fff2cc;strokeColor=#d6b656;labelBackgroundColor=none;fontStyle=0;movable=1;resizable=1;rotatable=1;deletable=1;editable=1;locked=0;connectable=1;spacing=6;fontFamily=Helvetica;" parent="Hu4YVAxkf72-brbfAEm7-1" vertex="1">
          <mxGeometry x="827.067448680352" y="334.11547640535053" width="208.50439882697955" height="157.23081242604738" as="geometry" />
        </mxCell>
        <mxCell id="9kNGfoyaYw8XRan4NpMP-96" style="edgeStyle=orthogonalEdgeStyle;rounded=0;orthogonalLoop=1;jettySize=auto;html=1;entryX=0.5;entryY=0;entryDx=0;entryDy=0;fontStyle=0;fontSize=30;movable=1;resizable=1;rotatable=1;deletable=1;editable=1;locked=0;connectable=1;spacing=6;fontFamily=Helvetica;" parent="Hu4YVAxkf72-brbfAEm7-1" source="9kNGfoyaYw8XRan4NpMP-97" target="9kNGfoyaYw8XRan4NpMP-106" edge="1">
          <mxGeometry relative="1" as="geometry">
            <Array as="points">
              <mxPoint x="1188.4750733137832" y="540.4809177145377" />
              <mxPoint x="931.3196480938419" y="540.4809177145377" />
            </Array>
          </mxGeometry>
        </mxCell>
        <mxCell id="9kNGfoyaYw8XRan4NpMP-97" value="&lt;span style=&quot;color: rgb(31, 35, 40); text-align: left;&quot;&gt;&lt;font&gt;静态邻接矩阵&lt;/font&gt;&lt;/span&gt;" style="ellipse;whiteSpace=wrap;html=1;fontSize=30;fillColor=#fff2cc;strokeColor=#d6b656;labelBackgroundColor=none;fontStyle=0;movable=1;resizable=1;rotatable=1;deletable=1;editable=1;locked=0;connectable=1;spacing=6;fontFamily=Helvetica;" parent="Hu4YVAxkf72-brbfAEm7-1" vertex="1">
          <mxGeometry x="1091.1730205278595" y="334.11547640535053" width="194.6041055718475" height="167.05773820267527" as="geometry" />
        </mxCell>
        <mxCell id="9kNGfoyaYw8XRan4NpMP-98" value="" style="edgeStyle=orthogonalEdgeStyle;rounded=0;orthogonalLoop=1;jettySize=auto;html=1;fontStyle=0;fontSize=30;movable=1;resizable=1;rotatable=1;deletable=1;editable=1;locked=0;connectable=1;spacing=6;fontFamily=Helvetica;" parent="Hu4YVAxkf72-brbfAEm7-1" source="9kNGfoyaYw8XRan4NpMP-99" target="9kNGfoyaYw8XRan4NpMP-93" edge="1">
          <mxGeometry relative="1" as="geometry" />
        </mxCell>
        <mxCell id="9kNGfoyaYw8XRan4NpMP-99" value="&lt;span style=&quot;color: rgb(31, 35, 40); font-style: normal; font-variant-ligatures: normal; font-variant-caps: normal; letter-spacing: normal; orphans: 2; text-indent: 0px; text-transform: none; widows: 2; word-spacing: 0px; -webkit-text-stroke-width: 0px; white-space: normal; text-decoration-thickness: initial; text-decoration-style: initial; text-decoration-color: initial; float: none; display: inline !important;&quot;&gt;&lt;font&gt;基于嵌入和topK邻居&lt;/font&gt;&lt;/span&gt;" style="text;whiteSpace=wrap;html=1;align=center;fontSize=30;labelBackgroundColor=none;fontStyle=0;movable=1;resizable=1;rotatable=1;deletable=1;editable=1;locked=0;connectable=1;spacing=6;fontFamily=Helvetica;" parent="Hu4YVAxkf72-brbfAEm7-1" vertex="1">
          <mxGeometry x="528.2111436950147" y="206.3654413091872" width="251.59530791788856" height="78.61540621302369" as="geometry" />
        </mxCell>
        <mxCell id="9kNGfoyaYw8XRan4NpMP-100" value="" style="edgeStyle=orthogonalEdgeStyle;rounded=0;orthogonalLoop=1;jettySize=auto;html=1;fontStyle=0;fontSize=30;movable=1;resizable=1;rotatable=1;deletable=1;editable=1;locked=0;connectable=1;spacing=6;fontFamily=Helvetica;" parent="Hu4YVAxkf72-brbfAEm7-1" source="9kNGfoyaYw8XRan4NpMP-101" target="9kNGfoyaYw8XRan4NpMP-95" edge="1">
          <mxGeometry relative="1" as="geometry">
            <Array as="points">
              <mxPoint x="931.3196480938419" y="304.6346990754667" />
              <mxPoint x="931.3196480938419" y="304.6346990754667" />
            </Array>
          </mxGeometry>
        </mxCell>
        <mxCell id="9kNGfoyaYw8XRan4NpMP-101" value="&lt;span style=&quot;color: rgb(31, 35, 40); font-style: normal; font-variant-ligatures: normal; font-variant-caps: normal; letter-spacing: normal; orphans: 2; text-indent: 0px; text-transform: none; widows: 2; word-spacing: 0px; -webkit-text-stroke-width: 0px; white-space: normal; text-decoration-thickness: initial; text-decoration-style: initial; text-decoration-color: initial; float: none; display: inline !important;&quot;&gt;&lt;font&gt;基于嵌入&lt;/font&gt;&lt;/span&gt;" style="text;whiteSpace=wrap;html=1;align=center;labelBackgroundColor=none;fontSize=30;fontStyle=0;movable=1;resizable=1;rotatable=1;deletable=1;editable=1;locked=0;connectable=1;spacing=6;fontFamily=Helvetica;" parent="Hu4YVAxkf72-brbfAEm7-1" vertex="1">
          <mxGeometry x="861.818181818182" y="206.3654413091872" width="139.0029325513197" height="78.61540621302369" as="geometry" />
        </mxCell>
        <mxCell id="9kNGfoyaYw8XRan4NpMP-102" value="" style="edgeStyle=orthogonalEdgeStyle;rounded=0;orthogonalLoop=1;jettySize=auto;html=1;fontStyle=0;fontSize=30;movable=1;resizable=1;rotatable=1;deletable=1;editable=1;locked=0;connectable=1;spacing=6;fontFamily=Helvetica;" parent="Hu4YVAxkf72-brbfAEm7-1" source="9kNGfoyaYw8XRan4NpMP-103" target="9kNGfoyaYw8XRan4NpMP-97" edge="1">
          <mxGeometry relative="1" as="geometry">
            <Array as="points">
              <mxPoint x="1188.4750733137832" y="304.6346990754667" />
              <mxPoint x="1188.4750733137832" y="304.6346990754667" />
            </Array>
          </mxGeometry>
        </mxCell>
        <mxCell id="9kNGfoyaYw8XRan4NpMP-103" value="&lt;span style=&quot;color: rgb(31, 35, 40); font-style: normal; font-variant-ligatures: normal; font-variant-caps: normal; letter-spacing: normal; orphans: 2; text-indent: 0px; text-transform: none; widows: 2; word-spacing: 0px; -webkit-text-stroke-width: 0px; white-space: normal; text-decoration-thickness: initial; text-decoration-style: initial; text-decoration-color: initial; float: none; display: inline !important;&quot;&gt;&lt;font&gt;由地理距离等先验信息&lt;/font&gt;&lt;/span&gt;" style="text;whiteSpace=wrap;html=1;fontSize=30;labelBackgroundColor=none;fontStyle=0;movable=1;resizable=1;rotatable=1;deletable=1;editable=1;locked=0;connectable=1;spacing=6;fontFamily=Helvetica;align=center;" parent="Hu4YVAxkf72-brbfAEm7-1" vertex="1">
          <mxGeometry x="1063.3724340175957" y="206.3654413091872" width="264.10557184750735" height="78.61540621302369" as="geometry" />
        </mxCell>
        <mxCell id="9kNGfoyaYw8XRan4NpMP-104" value="" style="rounded=0;whiteSpace=wrap;html=1;shadow=0;fillColor=#ffe6cc;strokeColor=#d79b00;fontStyle=0;fontSize=30;movable=1;resizable=1;rotatable=1;deletable=1;editable=1;locked=0;connectable=1;spacing=6;fontFamily=Helvetica;" parent="Hu4YVAxkf72-brbfAEm7-1" vertex="1">
          <mxGeometry x="799.266862170088" y="619.0963239275613" width="208.50439882697955" height="98.2692577662796" as="geometry" />
        </mxCell>
        <mxCell id="9kNGfoyaYw8XRan4NpMP-105" value="" style="rounded=0;whiteSpace=wrap;html=1;shadow=0;fillColor=#ffe6cc;strokeColor=#d79b00;fontStyle=0;fontSize=30;movable=1;resizable=1;rotatable=1;deletable=1;editable=1;locked=0;connectable=1;spacing=6;fontFamily=Helvetica;" parent="Hu4YVAxkf72-brbfAEm7-1" vertex="1">
          <mxGeometry x="813.16715542522" y="599.4424723743056" width="208.50439882697955" height="98.2692577662796" as="geometry" />
        </mxCell>
        <mxCell id="9kNGfoyaYw8XRan4NpMP-106" value="&lt;font&gt;&lt;span&gt;多头图注意力网络&lt;/span&gt;&lt;/font&gt;" style="rounded=0;whiteSpace=wrap;html=1;fillColor=#ffe6cc;strokeColor=#d79b00;fontSize=30;align=center;fontStyle=0;movable=1;resizable=1;rotatable=1;deletable=1;editable=1;locked=0;connectable=1;spacing=6;fontFamily=Helvetica;" parent="Hu4YVAxkf72-brbfAEm7-1" vertex="1">
          <mxGeometry x="827.067448680352" y="579.7886208210496" width="208.50439882697955" height="98.2692577662796" as="geometry" />
        </mxCell>
        <mxCell id="9kNGfoyaYw8XRan4NpMP-107" value="" style="rounded=1;whiteSpace=wrap;html=1;fillColor=#fff2cc;gradientColor=#ffd966;strokeColor=#d6b656;direction=south;fontStyle=0;fontSize=30;movable=1;resizable=1;rotatable=1;deletable=1;editable=1;locked=0;connectable=1;spacing=6;fontFamily=Helvetica;" parent="Hu4YVAxkf72-brbfAEm7-1" vertex="1">
          <mxGeometry x="1410.8797653958945" y="485.4501333654212" width="820.1173020527859" height="393.0770310651184" as="geometry" />
        </mxCell>
        <mxCell id="9kNGfoyaYw8XRan4NpMP-108" style="edgeStyle=orthogonalEdgeStyle;rounded=0;orthogonalLoop=1;jettySize=auto;html=1;exitX=0.5;exitY=0;exitDx=0;exitDy=0;entryX=0.5;entryY=1;entryDx=0;entryDy=0;fontStyle=0;fontSize=30;movable=1;resizable=1;rotatable=1;deletable=1;editable=1;locked=0;connectable=1;spacing=6;fontFamily=Helvetica;" parent="Hu4YVAxkf72-brbfAEm7-1" source="9kNGfoyaYw8XRan4NpMP-109" target="9kNGfoyaYw8XRan4NpMP-111" edge="1">
          <mxGeometry relative="1" as="geometry" />
        </mxCell>
        <mxCell id="9kNGfoyaYw8XRan4NpMP-109" value="&lt;font&gt;分块&lt;/font&gt;" style="rounded=1;whiteSpace=wrap;html=1;fillColor=#fff2cc;strokeColor=#d6b656;gradientColor=#ffd966;fontSize=30;direction=south;fontStyle=0;movable=1;resizable=1;rotatable=1;deletable=1;editable=1;locked=0;connectable=1;spacing=6;fontFamily=Helvetica;" parent="Hu4YVAxkf72-brbfAEm7-1" vertex="1">
          <mxGeometry x="1438.6803519061582" y="522.301105027776" width="69.50146627565985" height="294.8077732988388" as="geometry" />
        </mxCell>
        <mxCell id="9kNGfoyaYw8XRan4NpMP-110" style="edgeStyle=orthogonalEdgeStyle;rounded=0;orthogonalLoop=1;jettySize=auto;html=1;exitX=0.5;exitY=0;exitDx=0;exitDy=0;entryX=0.5;entryY=1;entryDx=0;entryDy=0;fontStyle=0;fontSize=30;movable=1;resizable=1;rotatable=1;deletable=1;editable=1;locked=0;connectable=1;spacing=6;fontFamily=Helvetica;" parent="Hu4YVAxkf72-brbfAEm7-1" source="9kNGfoyaYw8XRan4NpMP-111" target="9kNGfoyaYw8XRan4NpMP-113" edge="1">
          <mxGeometry relative="1" as="geometry" />
        </mxCell>
        <mxCell id="9kNGfoyaYw8XRan4NpMP-111" value="&lt;font&gt;Patch高维嵌入&lt;/font&gt;" style="whiteSpace=wrap;html=1;rounded=1;fillColor=#fff2cc;gradientColor=#ffd966;strokeColor=#d6b656;fontSize=30;direction=south;fontStyle=0;movable=1;resizable=1;rotatable=1;deletable=1;editable=1;locked=0;connectable=1;spacing=6;fontFamily=Helvetica;" parent="Hu4YVAxkf72-brbfAEm7-1" vertex="1">
          <mxGeometry x="1535.9824046920824" y="522.7924513166074" width="69.50146627565985" height="294.8077732988388" as="geometry" />
        </mxCell>
        <mxCell id="9kNGfoyaYw8XRan4NpMP-112" style="edgeStyle=orthogonalEdgeStyle;rounded=0;orthogonalLoop=1;jettySize=auto;html=1;exitX=0.5;exitY=0;exitDx=0;exitDy=0;fontStyle=0;fontSize=30;movable=1;resizable=1;rotatable=1;deletable=1;editable=1;locked=0;connectable=1;spacing=6;fontFamily=Helvetica;" parent="Hu4YVAxkf72-brbfAEm7-1" source="9kNGfoyaYw8XRan4NpMP-113" target="9kNGfoyaYw8XRan4NpMP-115" edge="1">
          <mxGeometry relative="1" as="geometry" />
        </mxCell>
        <mxCell id="9kNGfoyaYw8XRan4NpMP-113" value="深度卷积" style="rounded=1;whiteSpace=wrap;html=1;fillColor=#fff2cc;strokeColor=#d6b656;gradientColor=#ffd966;fontSize=30;direction=south;fontStyle=0;movable=1;resizable=1;rotatable=1;deletable=1;editable=1;locked=0;connectable=1;spacing=6;fontFamily=Helvetica;" parent="Hu4YVAxkf72-brbfAEm7-1" vertex="1">
          <mxGeometry x="1633.2844574780063" y="522.7924513166074" width="69.50146627565985" height="294.8077732988388" as="geometry" />
        </mxCell>
        <mxCell id="9kNGfoyaYw8XRan4NpMP-114" style="edgeStyle=orthogonalEdgeStyle;rounded=0;orthogonalLoop=1;jettySize=auto;html=1;exitX=0.5;exitY=0;exitDx=0;exitDy=0;entryX=0.5;entryY=1;entryDx=0;entryDy=0;fontStyle=0;fontSize=30;movable=1;resizable=1;rotatable=1;deletable=1;editable=1;locked=0;connectable=1;spacing=6;fontFamily=Helvetica;" parent="Hu4YVAxkf72-brbfAEm7-1" source="9kNGfoyaYw8XRan4NpMP-115" target="9kNGfoyaYw8XRan4NpMP-117" edge="1">
          <mxGeometry relative="1" as="geometry" />
        </mxCell>
        <mxCell id="9kNGfoyaYw8XRan4NpMP-115" value="&lt;font&gt;残差加和&lt;/font&gt;" style="rounded=1;whiteSpace=wrap;html=1;fillColor=#fff2cc;strokeColor=#d6b656;gradientColor=#ffd966;fontSize=30;direction=south;fontStyle=0;movable=1;resizable=1;rotatable=1;deletable=1;editable=1;locked=0;connectable=1;spacing=6;fontFamily=Helvetica;" parent="Hu4YVAxkf72-brbfAEm7-1" vertex="1">
          <mxGeometry x="1728.8489736070385" y="520.8270661612819" width="69.50146627565985" height="294.8077732988388" as="geometry" />
        </mxCell>
        <mxCell id="9kNGfoyaYw8XRan4NpMP-116" style="edgeStyle=orthogonalEdgeStyle;rounded=0;orthogonalLoop=1;jettySize=auto;html=1;exitX=0.5;exitY=0;exitDx=0;exitDy=0;entryX=0.5;entryY=1;entryDx=0;entryDy=0;fontStyle=0;fontSize=30;movable=1;resizable=1;rotatable=1;deletable=1;editable=1;locked=0;connectable=1;spacing=6;fontFamily=Helvetica;" parent="Hu4YVAxkf72-brbfAEm7-1" source="9kNGfoyaYw8XRan4NpMP-117" target="9kNGfoyaYw8XRan4NpMP-120" edge="1">
          <mxGeometry relative="1" as="geometry" />
        </mxCell>
        <mxCell id="9kNGfoyaYw8XRan4NpMP-117" value="&lt;font&gt;逐点卷积&lt;/font&gt;" style="rounded=1;whiteSpace=wrap;html=1;fillColor=#fff2cc;strokeColor=#d6b656;gradientColor=#ffd966;fontSize=30;direction=south;fontStyle=0;movable=1;resizable=1;rotatable=1;deletable=1;editable=1;locked=0;connectable=1;spacing=6;fontFamily=Helvetica;" parent="Hu4YVAxkf72-brbfAEm7-1" vertex="1">
          <mxGeometry x="1826.4985337243406" y="520.8270661612819" width="69.50146627565985" height="294.8077732988388" as="geometry" />
        </mxCell>
        <mxCell id="9kNGfoyaYw8XRan4NpMP-118" value="&lt;font&gt;展平层&lt;/font&gt;" style="rounded=1;whiteSpace=wrap;html=1;fillColor=#fff2cc;strokeColor=#d6b656;gradientColor=#ffd966;fontSize=30;direction=south;fontStyle=0;movable=1;resizable=1;rotatable=1;deletable=1;editable=1;locked=0;connectable=1;spacing=6;fontFamily=Helvetica;" parent="Hu4YVAxkf72-brbfAEm7-1" vertex="1">
          <mxGeometry x="2123.964809384165" y="524.7578364719328" width="69.50146627565985" height="294.8077732988388" as="geometry" />
        </mxCell>
        <mxCell id="9kNGfoyaYw8XRan4NpMP-119" style="edgeStyle=orthogonalEdgeStyle;rounded=0;orthogonalLoop=1;jettySize=auto;html=1;exitX=0.5;exitY=0;exitDx=0;exitDy=0;entryX=0.5;entryY=1;entryDx=0;entryDy=0;fontStyle=0;fontSize=30;movable=1;resizable=1;rotatable=1;deletable=1;editable=1;locked=0;connectable=1;spacing=6;fontFamily=Helvetica;" parent="Hu4YVAxkf72-brbfAEm7-1" source="9kNGfoyaYw8XRan4NpMP-120" target="9kNGfoyaYw8XRan4NpMP-122" edge="1">
          <mxGeometry relative="1" as="geometry" />
        </mxCell>
        <mxCell id="9kNGfoyaYw8XRan4NpMP-120" value="展平全连接" style="rounded=1;whiteSpace=wrap;html=1;fillColor=#fff2cc;strokeColor=#d6b656;gradientColor=#ffd966;fontSize=30;direction=south;fontStyle=0;movable=1;resizable=1;rotatable=1;deletable=1;editable=1;locked=0;connectable=1;spacing=6;fontFamily=Helvetica;" parent="Hu4YVAxkf72-brbfAEm7-1" vertex="1">
          <mxGeometry x="1925.1906158357772" y="521.8097587389447" width="69.50146627565985" height="294.8077732988388" as="geometry" />
        </mxCell>
        <mxCell id="9kNGfoyaYw8XRan4NpMP-121" style="edgeStyle=orthogonalEdgeStyle;rounded=0;orthogonalLoop=1;jettySize=auto;html=1;exitX=0.5;exitY=0;exitDx=0;exitDy=0;entryX=0.5;entryY=1;entryDx=0;entryDy=0;fontStyle=0;fontSize=30;movable=1;resizable=1;rotatable=1;deletable=1;editable=1;locked=0;connectable=1;spacing=6;fontFamily=Helvetica;" parent="Hu4YVAxkf72-brbfAEm7-1" source="9kNGfoyaYw8XRan4NpMP-122" target="9kNGfoyaYw8XRan4NpMP-118" edge="1">
          <mxGeometry relative="1" as="geometry">
            <Array as="points">
              <mxPoint x="2094.7741935483878" y="672.1617231213525" />
            </Array>
          </mxGeometry>
        </mxCell>
        <mxCell id="9kNGfoyaYw8XRan4NpMP-122" value="&lt;font&gt;时间卷积神经网络&lt;/font&gt;" style="rounded=1;whiteSpace=wrap;html=1;fillColor=#fff2cc;strokeColor=#d6b656;gradientColor=#ffd966;fontSize=30;direction=south;fontStyle=0;movable=1;resizable=1;rotatable=1;deletable=1;editable=1;locked=0;connectable=1;spacing=6;fontFamily=Helvetica;" parent="Hu4YVAxkf72-brbfAEm7-1" vertex="1">
          <mxGeometry x="2025.2727272727275" y="522.7924513166074" width="69.50146627565985" height="294.8077732988388" as="geometry" />
        </mxCell>
        <mxCell id="9kNGfoyaYw8XRan4NpMP-123" value="" style="rounded=1;whiteSpace=wrap;html=1;fillColor=#fff2cc;gradientColor=#ffd966;strokeColor=#d6b656;direction=south;fontStyle=0;fontSize=30;movable=1;resizable=1;rotatable=1;deletable=1;editable=1;locked=0;connectable=1;spacing=6;fontFamily=Helvetica;" parent="Hu4YVAxkf72-brbfAEm7-1" vertex="1">
          <mxGeometry x="1408.0997067448686" y="17.688466397930327" width="822.8973607038125" height="393.0770310651184" as="geometry" />
        </mxCell>
        <mxCell id="9kNGfoyaYw8XRan4NpMP-124" value="&lt;font&gt;趋势流&lt;/font&gt;" style="text;html=1;align=center;verticalAlign=middle;whiteSpace=wrap;rounded=0;direction=west;fontSize=30;fontStyle=0;movable=1;resizable=1;rotatable=1;deletable=1;editable=1;locked=0;connectable=1;spacing=6;fontFamily=Helvetica;" parent="Hu4YVAxkf72-brbfAEm7-1" vertex="1">
          <mxGeometry x="1762.1341926070043" width="120.2636673151751" height="95.57909738717339" as="geometry" />
        </mxCell>
        <mxCell id="9kNGfoyaYw8XRan4NpMP-125" style="edgeStyle=orthogonalEdgeStyle;rounded=0;orthogonalLoop=1;jettySize=auto;html=1;exitX=0.5;exitY=0;exitDx=0;exitDy=0;entryX=0.5;entryY=1;entryDx=0;entryDy=0;fontStyle=0;fontSize=30;movable=1;resizable=1;rotatable=1;deletable=1;editable=1;locked=0;connectable=1;spacing=6;fontFamily=Helvetica;" parent="Hu4YVAxkf72-brbfAEm7-1" source="9kNGfoyaYw8XRan4NpMP-126" target="9kNGfoyaYw8XRan4NpMP-128" edge="1">
          <mxGeometry relative="1" as="geometry" />
        </mxCell>
        <mxCell id="9kNGfoyaYw8XRan4NpMP-126" value="&lt;font&gt;全连接层&lt;/font&gt;" style="rounded=1;whiteSpace=wrap;html=1;fillColor=#fff2cc;strokeColor=#d6b656;gradientColor=#ffd966;fontSize=30;direction=south;fontStyle=0;movable=1;resizable=1;rotatable=1;deletable=1;editable=1;locked=0;connectable=1;spacing=6;fontFamily=Helvetica;" parent="Hu4YVAxkf72-brbfAEm7-1" vertex="1">
          <mxGeometry x="1438.6803519061582" y="72.7192507470469" width="69.50146627565985" height="294.8077732988388" as="geometry" />
        </mxCell>
        <mxCell id="9kNGfoyaYw8XRan4NpMP-127" style="edgeStyle=orthogonalEdgeStyle;rounded=0;orthogonalLoop=1;jettySize=auto;html=1;exitX=0.5;exitY=0;exitDx=0;exitDy=0;entryX=0.5;entryY=1;entryDx=0;entryDy=0;fontStyle=0;fontSize=30;movable=1;resizable=1;rotatable=1;deletable=1;editable=1;locked=0;connectable=1;spacing=6;fontFamily=Helvetica;" parent="Hu4YVAxkf72-brbfAEm7-1" source="9kNGfoyaYw8XRan4NpMP-128" target="9kNGfoyaYw8XRan4NpMP-130" edge="1">
          <mxGeometry relative="1" as="geometry" />
        </mxCell>
        <mxCell id="9kNGfoyaYw8XRan4NpMP-128" value="&lt;font&gt;平均池化层&lt;/font&gt;" style="rounded=1;whiteSpace=wrap;html=1;fillColor=#fff2cc;strokeColor=#d6b656;gradientColor=#ffd966;fontSize=30;direction=south;fontStyle=0;movable=1;resizable=1;rotatable=1;deletable=1;editable=1;locked=0;connectable=1;spacing=6;fontFamily=Helvetica;" parent="Hu4YVAxkf72-brbfAEm7-1" vertex="1">
          <mxGeometry x="1540.1524926686222" y="72.7192507470469" width="69.50146627565985" height="294.8077732988388" as="geometry" />
        </mxCell>
        <mxCell id="9kNGfoyaYw8XRan4NpMP-129" style="edgeStyle=orthogonalEdgeStyle;rounded=0;orthogonalLoop=1;jettySize=auto;html=1;exitX=0.5;exitY=0;exitDx=0;exitDy=0;entryX=0.5;entryY=1;entryDx=0;entryDy=0;fontStyle=0;fontSize=30;movable=1;resizable=1;rotatable=1;deletable=1;editable=1;locked=0;connectable=1;spacing=6;fontFamily=Helvetica;" parent="Hu4YVAxkf72-brbfAEm7-1" source="9kNGfoyaYw8XRan4NpMP-130" target="9kNGfoyaYw8XRan4NpMP-132" edge="1">
          <mxGeometry relative="1" as="geometry" />
        </mxCell>
        <mxCell id="9kNGfoyaYw8XRan4NpMP-130" value="&lt;font&gt;批归一化&lt;/font&gt;" style="rounded=1;whiteSpace=wrap;html=1;fillColor=#fff2cc;strokeColor=#d6b656;gradientColor=#ffd966;fontSize=30;direction=south;fontStyle=0;movable=1;resizable=1;rotatable=1;deletable=1;editable=1;locked=0;connectable=1;spacing=6;fontFamily=Helvetica;" parent="Hu4YVAxkf72-brbfAEm7-1" vertex="1">
          <mxGeometry x="1647.184750733138" y="72.7192507470469" width="69.50146627565985" height="294.8077732988388" as="geometry" />
        </mxCell>
        <mxCell id="9kNGfoyaYw8XRan4NpMP-131" style="edgeStyle=orthogonalEdgeStyle;rounded=0;orthogonalLoop=1;jettySize=auto;html=1;exitX=0.5;exitY=0;exitDx=0;exitDy=0;entryX=0.5;entryY=1;entryDx=0;entryDy=0;fontStyle=0;fontSize=30;movable=1;resizable=1;rotatable=1;deletable=1;editable=1;locked=0;connectable=1;spacing=6;fontFamily=Helvetica;" parent="Hu4YVAxkf72-brbfAEm7-1" source="9kNGfoyaYw8XRan4NpMP-132" target="9kNGfoyaYw8XRan4NpMP-134" edge="1">
          <mxGeometry relative="1" as="geometry" />
        </mxCell>
        <mxCell id="9kNGfoyaYw8XRan4NpMP-132" value="Times&lt;div&gt;Block&lt;/div&gt;" style="rounded=1;whiteSpace=wrap;html=1;fillColor=#fff2cc;strokeColor=#d6b656;gradientColor=#ffd966;fontSize=30;direction=south;fontStyle=0;movable=1;resizable=1;rotatable=1;deletable=1;editable=1;locked=0;connectable=1;spacing=6;fontFamily=Helvetica;" parent="Hu4YVAxkf72-brbfAEm7-1" vertex="1">
          <mxGeometry x="1762.5571847507335" y="72.7192507470469" width="69.50146627565985" height="294.8077732988388" as="geometry" />
        </mxCell>
        <mxCell id="9kNGfoyaYw8XRan4NpMP-133" style="edgeStyle=orthogonalEdgeStyle;rounded=0;orthogonalLoop=1;jettySize=auto;html=1;exitX=0.5;exitY=0;exitDx=0;exitDy=0;entryX=0.5;entryY=1;entryDx=0;entryDy=0;fontStyle=0;fontSize=30;movable=1;resizable=1;rotatable=1;deletable=1;editable=1;locked=0;connectable=1;spacing=6;fontFamily=Helvetica;" parent="Hu4YVAxkf72-brbfAEm7-1" source="9kNGfoyaYw8XRan4NpMP-134" target="9kNGfoyaYw8XRan4NpMP-137" edge="1">
          <mxGeometry relative="1" as="geometry" />
        </mxCell>
        <mxCell id="9kNGfoyaYw8XRan4NpMP-134" value="&lt;font&gt;平均池化层&lt;/font&gt;" style="rounded=1;whiteSpace=wrap;html=1;fillColor=#fff2cc;strokeColor=#d6b656;gradientColor=#ffd966;fontSize=30;direction=south;fontStyle=0;movable=1;resizable=1;rotatable=1;deletable=1;editable=1;locked=0;connectable=1;spacing=6;fontFamily=Helvetica;" parent="Hu4YVAxkf72-brbfAEm7-1" vertex="1">
          <mxGeometry x="1870.9794721407627" y="72.7192507470469" width="69.50146627565985" height="294.8077732988388" as="geometry" />
        </mxCell>
        <mxCell id="9kNGfoyaYw8XRan4NpMP-135" value="全连接层" style="rounded=1;whiteSpace=wrap;html=1;fillColor=#fff2cc;strokeColor=#d6b656;gradientColor=#ffd966;fontSize=30;direction=south;fontStyle=0;movable=1;resizable=1;rotatable=1;deletable=1;editable=1;locked=0;connectable=1;spacing=6;fontFamily=Helvetica;" parent="Hu4YVAxkf72-brbfAEm7-1" vertex="1">
          <mxGeometry x="2100.33431085044" y="72.7192507470469" width="69.50146627565985" height="294.8077732988388" as="geometry" />
        </mxCell>
        <mxCell id="9kNGfoyaYw8XRan4NpMP-136" style="edgeStyle=orthogonalEdgeStyle;rounded=0;orthogonalLoop=1;jettySize=auto;html=1;exitX=0.5;exitY=0;exitDx=0;exitDy=0;entryX=0.5;entryY=1;entryDx=0;entryDy=0;fontStyle=0;fontSize=30;movable=1;resizable=1;rotatable=1;deletable=1;editable=1;locked=0;connectable=1;spacing=6;fontFamily=Helvetica;" parent="Hu4YVAxkf72-brbfAEm7-1" source="9kNGfoyaYw8XRan4NpMP-137" target="9kNGfoyaYw8XRan4NpMP-135" edge="1">
          <mxGeometry relative="1" as="geometry" />
        </mxCell>
        <mxCell id="9kNGfoyaYw8XRan4NpMP-137" value="&lt;font&gt;批归一化&lt;/font&gt;" style="rounded=1;whiteSpace=wrap;html=1;fillColor=#fff2cc;strokeColor=#d6b656;gradientColor=#ffd966;fontSize=30;direction=south;fontStyle=0;movable=1;resizable=1;rotatable=1;deletable=1;editable=1;locked=0;connectable=1;spacing=6;fontFamily=Helvetica;" parent="Hu4YVAxkf72-brbfAEm7-1" vertex="1">
          <mxGeometry x="1984.9618768328446" y="72.7192507470469" width="69.50146627565985" height="294.8077732988388" as="geometry" />
        </mxCell>
        <mxCell id="9kNGfoyaYw8XRan4NpMP-138" value="&lt;font&gt;季节流&lt;/font&gt;" style="text;html=1;align=center;verticalAlign=middle;whiteSpace=wrap;rounded=0;direction=west;strokeWidth=18;fontStyle=0;fontSize=30;movable=1;resizable=1;rotatable=1;deletable=1;editable=1;locked=0;connectable=1;spacing=6;fontFamily=Helvetica;" parent="Hu4YVAxkf72-brbfAEm7-1" vertex="1">
          <mxGeometry x="1676.3753665689148" y="816.6175320377833" width="271.0557184750734" height="58.96155465976775" as="geometry" />
        </mxCell>
        <mxCell id="9kNGfoyaYw8XRan4NpMP-139" value="" style="endArrow=classic;html=1;rounded=0;exitX=1;exitY=0.5;exitDx=0;exitDy=0;entryX=0.514;entryY=0.999;entryDx=0;entryDy=0;entryPerimeter=0;fontStyle=0;fontSize=30;movable=1;resizable=1;rotatable=1;deletable=1;editable=1;locked=0;connectable=1;spacing=6;fontFamily=Helvetica;" parent="Hu4YVAxkf72-brbfAEm7-1" source="9kNGfoyaYw8XRan4NpMP-91" target="9kNGfoyaYw8XRan4NpMP-123" edge="1">
          <mxGeometry width="50" height="50" relative="1" as="geometry">
            <mxPoint x="1383.0791788856309" y="514.930910695305" as="sourcePoint" />
            <mxPoint x="1452.5806451612902" y="416.6616529290255" as="targetPoint" />
            <Array as="points">
              <mxPoint x="1369.178885630499" y="465.7962818121654" />
              <mxPoint x="1369.178885630499" y="338.0462467160018" />
              <mxPoint x="1369.178885630499" y="220.1231373964663" />
              <mxPoint x="1383.0791788856309" y="220.1231373964663" />
            </Array>
          </mxGeometry>
        </mxCell>
        <mxCell id="9kNGfoyaYw8XRan4NpMP-140" value="" style="endArrow=classic;html=1;rounded=0;exitX=1;exitY=0.5;exitDx=0;exitDy=0;entryX=0.474;entryY=0.999;entryDx=0;entryDy=0;entryPerimeter=0;fontStyle=0;fontSize=30;movable=1;resizable=1;rotatable=1;deletable=1;editable=1;locked=0;connectable=1;spacing=6;fontFamily=Helvetica;" parent="Hu4YVAxkf72-brbfAEm7-1" source="9kNGfoyaYw8XRan4NpMP-91" target="9kNGfoyaYw8XRan4NpMP-107" edge="1">
          <mxGeometry width="50" height="50" relative="1" as="geometry">
            <mxPoint x="1383.0791788856309" y="514.930910695305" as="sourcePoint" />
            <mxPoint x="1452.5806451612902" y="416.6616529290255" as="targetPoint" />
            <Array as="points">
              <mxPoint x="1369.178885630499" y="465.7962818121654" />
              <mxPoint x="1369.178885630499" y="672.1617231213525" />
              <mxPoint x="1383.0791788856309" y="672.1617231213525" />
            </Array>
          </mxGeometry>
        </mxCell>
        <mxCell id="9kNGfoyaYw8XRan4NpMP-141" value="&lt;font&gt;&lt;span&gt;自&lt;/span&gt;&lt;/font&gt;&lt;div&gt;&lt;font&gt;&lt;span&gt;适&lt;/span&gt;&lt;/font&gt;&lt;/div&gt;&lt;div&gt;&lt;font&gt;&lt;span&gt;应&lt;/span&gt;&lt;/font&gt;&lt;/div&gt;&lt;div&gt;&lt;font&gt;&lt;span&gt;指&lt;/span&gt;&lt;/font&gt;&lt;/div&gt;&lt;div&gt;&lt;font&gt;&lt;span&gt;数&lt;/span&gt;&lt;/font&gt;&lt;/div&gt;&lt;div&gt;&lt;font&gt;&lt;span&gt;分&lt;/span&gt;&lt;/font&gt;&lt;/div&gt;&lt;div&gt;&lt;font&gt;&lt;span&gt;解&lt;/span&gt;&lt;/font&gt;&lt;/div&gt;" style="text;html=1;align=center;verticalAlign=middle;resizable=1;points=[];autosize=1;strokeColor=none;fillColor=none;fontSize=30;fontStyle=0;movable=1;rotatable=1;deletable=1;editable=1;locked=0;connectable=1;spacing=6;fontFamily=Helvetica;" parent="Hu4YVAxkf72-brbfAEm7-1" vertex="1">
          <mxGeometry x="1358.2800247269113" y="330.0301037117918" width="60" height="270" as="geometry" />
        </mxCell>
        <mxCell id="9kNGfoyaYw8XRan4NpMP-142" value="" style="endArrow=classic;html=1;rounded=0;exitX=0.5;exitY=0;exitDx=0;exitDy=0;entryX=0;entryY=0.5;entryDx=0;entryDy=0;fontStyle=0;fontSize=30;movable=1;resizable=1;rotatable=1;deletable=1;editable=1;locked=0;connectable=1;spacing=6;fontFamily=Helvetica;" parent="Hu4YVAxkf72-brbfAEm7-1" source="9kNGfoyaYw8XRan4NpMP-90" target="9kNGfoyaYw8XRan4NpMP-91" edge="1">
          <mxGeometry width="50" height="50" relative="1" as="geometry">
            <mxPoint x="521.2609970674487" y="593.5463169083287" as="sourcePoint" />
            <mxPoint x="590.7624633431086" y="495.27705914204915" as="targetPoint" />
          </mxGeometry>
        </mxCell>
        <mxCell id="9kNGfoyaYw8XRan4NpMP-143" value="" style="endArrow=classic;html=1;rounded=0;exitX=0.5;exitY=0;exitDx=0;exitDy=0;entryX=0.5;entryY=1;entryDx=0;entryDy=0;fontStyle=0;fontSize=30;movable=1;resizable=1;rotatable=1;deletable=1;editable=1;locked=0;connectable=1;spacing=6;fontFamily=Helvetica;" parent="Hu4YVAxkf72-brbfAEm7-1" source="9kNGfoyaYw8XRan4NpMP-107" target="9kNGfoyaYw8XRan4NpMP-145" edge="1">
          <mxGeometry width="50" height="50" relative="1" as="geometry">
            <mxPoint x="2314.3988269794727" y="711.4694262278642" as="sourcePoint" />
            <mxPoint x="2383.900293255133" y="455.9693560355374" as="targetPoint" />
            <Array as="points">
              <mxPoint x="2272.697947214077" y="681.9886488979803" />
              <mxPoint x="2272.697947214077" y="573.8924653550727" />
              <mxPoint x="2272.697947214077" y="455.9693560355374" />
            </Array>
          </mxGeometry>
        </mxCell>
        <mxCell id="9kNGfoyaYw8XRan4NpMP-144" value="" style="endArrow=classic;html=1;rounded=0;exitX=0.5;exitY=0;exitDx=0;exitDy=0;entryX=0.5;entryY=1;entryDx=0;entryDy=0;fontStyle=0;fontSize=30;movable=1;resizable=1;rotatable=1;deletable=1;editable=1;locked=0;connectable=1;spacing=6;fontFamily=Helvetica;" parent="Hu4YVAxkf72-brbfAEm7-1" source="9kNGfoyaYw8XRan4NpMP-123" target="9kNGfoyaYw8XRan4NpMP-145" edge="1">
          <mxGeometry width="50" height="50" relative="1" as="geometry">
            <mxPoint x="2356.099706744868" y="220.1231373964663" as="sourcePoint" />
            <mxPoint x="2383.900293255133" y="455.9693560355374" as="targetPoint" />
            <Array as="points">
              <mxPoint x="2272.697947214077" y="214.22698193048953" />
              <mxPoint x="2272.697947214077" y="338.0462467160018" />
              <mxPoint x="2272.697947214077" y="455.9693560355374" />
            </Array>
          </mxGeometry>
        </mxCell>
        <mxCell id="9kNGfoyaYw8XRan4NpMP-145" value="&lt;font style=&quot;color: rgb(0, 0, 0);&quot;&gt;输出预测数据&lt;/font&gt;" style="rounded=1;whiteSpace=wrap;html=1;fillColor=light-dark(#d1cccc, #535353);fontColor=#ffffff;strokeColor=#333333;direction=south;fontSize=30;fontStyle=0;movable=1;resizable=1;rotatable=1;deletable=1;editable=1;locked=0;connectable=1;spacing=6;fontFamily=Helvetica;" parent="Hu4YVAxkf72-brbfAEm7-1" vertex="1">
          <mxGeometry x="2314.3988269794727" y="288.91161783286196" width="55.60117302052787" height="334.11547640535053" as="geometry" />
        </mxCell>
        <mxCell id="9kNGfoyaYw8XRan4NpMP-146" value="" style="endArrow=classic;html=1;rounded=0;exitX=1.001;exitY=0.521;exitDx=0;exitDy=0;entryX=0.497;entryY=1.005;entryDx=0;entryDy=0;entryPerimeter=0;exitPerimeter=0;fontStyle=0;fontSize=30;movable=1;resizable=1;rotatable=1;deletable=1;editable=1;locked=0;connectable=1;spacing=6;fontFamily=Helvetica;" parent="Hu4YVAxkf72-brbfAEm7-1" source="9kNGfoyaYw8XRan4NpMP-1" target="9kNGfoyaYw8XRan4NpMP-90" edge="1">
          <mxGeometry width="50" height="50" relative="1" as="geometry">
            <mxPoint x="423.9589442815251" y="868.7002386539115" as="sourcePoint" />
            <mxPoint x="493.4604105571849" y="770.4309808876321" as="targetPoint" />
          </mxGeometry>
        </mxCell>
        <mxCell id="9kNGfoyaYw8XRan4NpMP-147" value="&lt;div style=&quot;line-height: 100%;&quot;&gt;&lt;font style=&quot;line-height: 100%;&quot;&gt;&lt;span&gt;站&lt;/span&gt;&lt;/font&gt;&lt;div&gt;&lt;font style=&quot;line-height: 100%;&quot;&gt;&lt;span&gt;&amp;nbsp; &amp;nbsp; &amp;nbsp; &amp;nbsp; 点&lt;/span&gt;&lt;/font&gt;&lt;/div&gt;&lt;div&gt;&lt;font style=&quot;line-height: 100%;&quot;&gt;&lt;span&gt;&amp;nbsp; &amp;nbsp; &amp;nbsp; &amp;nbsp; &amp;nbsp; &amp;nbsp; &amp;nbsp; &amp;nbsp; 分&lt;/span&gt;&lt;/font&gt;&lt;/div&gt;&lt;div&gt;&lt;font style=&quot;line-height: 100%;&quot;&gt;&lt;span&gt;&amp;nbsp; &amp;nbsp; &amp;nbsp; &amp;nbsp; &amp;nbsp; &amp;nbsp; &amp;nbsp; &amp;nbsp; &amp;nbsp; &amp;nbsp; &amp;nbsp; &amp;nbsp; 布&lt;/span&gt;&lt;/font&gt;&lt;/div&gt;&lt;/div&gt;" style="text;html=1;align=center;verticalAlign=middle;resizable=1;points=[];autosize=1;strokeColor=none;fillColor=none;fontStyle=0;fontSize=30;movable=1;rotatable=1;deletable=1;editable=1;locked=0;connectable=1;spacing=6;fontFamily=Helvetica;" parent="Hu4YVAxkf72-brbfAEm7-1" vertex="1">
          <mxGeometry x="123.29800444859121" y="7.570492391061219" width="260" height="140" as="geometry" />
        </mxCell>
        <mxCell id="9kNGfoyaYw8XRan4NpMP-148" value="&lt;span&gt;&lt;span&gt;特&lt;/span&gt;&lt;/span&gt;&lt;div&gt;&lt;span&gt;&lt;span&gt;征&lt;/span&gt;&lt;/span&gt;&lt;/div&gt;&lt;div&gt;&lt;span&gt;&lt;span&gt;融&lt;/span&gt;&lt;/span&gt;&lt;/div&gt;&lt;div&gt;&lt;span&gt;&lt;span&gt;合&lt;/span&gt;&lt;/span&gt;&lt;/div&gt;" style="text;html=1;align=center;verticalAlign=middle;resizable=1;points=[];autosize=1;strokeColor=none;fillColor=none;fontSize=30;fontStyle=0;movable=1;rotatable=1;deletable=1;editable=1;locked=0;connectable=1;spacing=6;fontFamily=Helvetica;" parent="Hu4YVAxkf72-brbfAEm7-1" vertex="1">
          <mxGeometry x="2220.0982065450926" y="369.24326142120447" width="60" height="170" as="geometry" />
        </mxCell>
        <mxCell id="9kNGfoyaYw8XRan4NpMP-149" value="&lt;font&gt;&lt;span&gt;数据源&lt;/span&gt;&lt;/font&gt;" style="text;html=1;align=center;verticalAlign=middle;resizable=1;points=[];autosize=1;strokeColor=none;fillColor=none;strokeWidth=11;fontSize=30;fontStyle=0;movable=1;rotatable=1;deletable=1;editable=1;locked=0;connectable=1;spacing=6;fontFamily=Helvetica;" parent="Hu4YVAxkf72-brbfAEm7-1" vertex="1">
          <mxGeometry x="122.19669714811273" y="909.903775372654" width="120" height="60" as="geometry" />
        </mxCell>
        <mxCell id="9kNGfoyaYw8XRan4NpMP-150" value="&lt;font&gt;GAT空间模块&lt;/font&gt;" style="text;html=1;align=center;verticalAlign=middle;resizable=1;points=[];autosize=1;strokeColor=none;fillColor=none;strokeWidth=13;fontSize=30;fontStyle=0;movable=1;rotatable=1;deletable=1;editable=1;locked=0;connectable=1;spacing=6;fontFamily=Helvetica;" parent="Hu4YVAxkf72-brbfAEm7-1" vertex="1">
          <mxGeometry x="812.8396670913464" y="774.292199655188" width="210" height="60" as="geometry" />
        </mxCell>
        <mxCell id="9kNGfoyaYw8XRan4NpMP-151" value="&lt;font&gt;&lt;span&gt;趋势季节双流模块&lt;/span&gt;&lt;/font&gt;" style="text;html=1;align=center;verticalAlign=middle;resizable=1;points=[];autosize=1;strokeColor=none;fillColor=none;strokeWidth=13;fontSize=30;fontStyle=0;movable=1;rotatable=1;deletable=1;editable=1;locked=0;connectable=1;spacing=6;fontFamily=Helvetica;" parent="Hu4YVAxkf72-brbfAEm7-1" vertex="1">
          <mxGeometry x="1686.121124169802" y="900.0768495960261" width="270" height="60" as="geometry" />
        </mxCell>
      </root>
    </mxGraphModel>
  </diagram>
</mxfile>
